<?xml version="1.0" encoding="UTF-8" standalone="no"?>
<svg
   xmlns:dc="http://purl.org/dc/elements/1.1/"
   xmlns:cc="http://creativecommons.org/ns#"
   xmlns:rdf="http://www.w3.org/1999/02/22-rdf-syntax-ns#"
   xmlns:svg="http://www.w3.org/2000/svg"
   xmlns="http://www.w3.org/2000/svg"
   xmlns:xlink="http://www.w3.org/1999/xlink"
   xmlns:sodipodi="http://sodipodi.sourceforge.net/DTD/sodipodi-0.dtd"
   xmlns:inkscape="http://www.inkscape.org/namespaces/inkscape"
   sodipodi:docname="D209-SBASANO.pdf"
   id="svg474"
   version="1.2"
   viewBox="0 0 513.14856 332.71066"
   height="332.71066pt"
   width="513.14856pt">
  <metadata
     id="metadata478">
    <rdf:RDF>
      <cc:Work
         rdf:about="">
        <dc:format>image/svg+xml</dc:format>
        <dc:type
           rdf:resource="http://purl.org/dc/dcmitype/StillImage" />
      </cc:Work>
    </rdf:RDF>
  </metadata>
  <sodipodi:namedview
     id="namedview476"
     inkscape:window-height="480"
     inkscape:window-width="640"
     inkscape:pageshadow="2"
     inkscape:pageopacity="0"
     guidetolerance="10"
     gridtolerance="10"
     objecttolerance="10"
     borderopacity="1"
     bordercolor="#666666"
     pagecolor="#ffffff" />
  <defs
     id="defs139">
    <g
       id="g137">
      <symbol
         id="glyph0-0"
         overflow="visible">
        <path
           inkscape:connector-curvature="0"
           id="path2"
           d="m 2.046875,0 v -9.28125 h 8.21875 V 0 Z M 2.3125,-0.234375 H 10 v -8.8125 H 2.3125 Z m 0,0"
           style="stroke:none" />
      </symbol>
      <symbol
         id="glyph0-1"
         overflow="visible">
        <path
           inkscape:connector-curvature="0"
           id="path5"
           d="M 1.265625,0 V -10.625 H 5.3125 c 0.914063,0 1.613281,0.05469 2.09375,0.15625 0.675781,0.136719 1.253906,0.386719 1.734375,0.75 0.613281,0.480469 1.070313,1.089844 1.375,1.828125 0.308594,0.730469 0.46875,1.570312 0.46875,2.515625 0,0.8125 -0.105469,1.535156 -0.3125,2.15625 -0.210937,0.617187 -0.480469,1.132812 -0.8125,1.546875 -0.324219,0.40625 -0.679687,0.730469 -1.0625,0.96875 -0.386719,0.230469 -0.855469,0.410156 -1.40625,0.53125 C 6.847656,-0.0546875 6.222656,0 5.515625,0 Z m 1.5625,-1.25 h 2.5 C 6.105469,-1.25 6.71875,-1.3125 7.15625,-1.4375 7.589844,-1.570313 7.945313,-1.757813 8.21875,-2 8.582031,-2.332031 8.863281,-2.78125 9.0625,-3.34375 9.269531,-3.902344 9.375,-4.585938 9.375,-5.390625 c 0,-1.113281 -0.207031,-1.96875 -0.609375,-2.5625 C 8.367188,-8.542969 7.882813,-8.945313 7.3125,-9.15625 6.882813,-9.300781 6.210938,-9.375 5.296875,-9.375 h -2.46875 z m 0,0"
           style="stroke:none" />
      </symbol>
      <symbol
         id="glyph0-2"
         overflow="visible">
        <path
           inkscape:connector-curvature="0"
           id="path8"
           d="m 0.734375,-3.40625 1.46875,-0.125 C 2.273438,-3 2.4375,-2.558594 2.6875,-2.21875 c 0.257813,0.34375 0.65625,0.621094 1.1875,0.828125 0.527344,0.210937 1.128906,0.3125 1.796875,0.3125 0.589844,0 1.117188,-0.078125 1.578125,-0.234375 C 7.707031,-1.476563 8.046875,-1.695313 8.265625,-1.96875 8.480469,-2.246094 8.59375,-2.554688 8.59375,-2.890625 8.59375,-3.222656 8.480469,-3.507813 8.265625,-3.75 8.054688,-3.996094 7.707031,-4.210938 7.21875,-4.390625 6.90625,-4.492188 6.207031,-4.660156 5.125,-4.890625 4.039063,-5.128906 3.285156,-5.351563 2.859375,-5.5625 2.296875,-5.832031 1.871094,-6.160156 1.59375,-6.546875 1.320313,-6.941406 1.1875,-7.382813 1.1875,-7.875 c 0,-0.539063 0.164063,-1.039063 0.5,-1.5 0.339844,-0.464844 0.835938,-0.820313 1.484375,-1.0625 0.644531,-0.246094 1.363281,-0.375 2.15625,-0.375 0.863281,0 1.628906,0.132812 2.296875,0.390625 0.664063,0.25 1.175781,0.628906 1.53125,1.125 0.363281,0.492187 0.5625,1.050781 0.59375,1.671875 l -1.5,0.09375 C 8.164063,-8.195313 7.894531,-8.703125 7.4375,-9.046875 6.976563,-9.386719 6.292969,-9.5625 5.390625,-9.5625 c -0.9375,0 -1.628906,0.160156 -2.0625,0.46875 -0.429687,0.3125 -0.640625,0.691406 -0.640625,1.125 0,0.375 0.148438,0.691406 0.453125,0.9375 0.300781,0.25 1.082031,0.507812 2.34375,0.765625 1.269531,0.25 2.140625,0.476562 2.609375,0.671875 0.675781,0.28125 1.175781,0.644531 1.5,1.078125 0.332031,0.4375 0.5,0.945312 0.5,1.515625 0,0.5625 -0.183594,1.097656 -0.546875,1.59375 -0.355469,0.5 -0.867187,0.894531 -1.53125,1.171875 C 7.347656,0.0429688 6.589844,0.1875 5.75,0.1875 4.6875,0.1875 3.792969,0.0429688 3.078125,-0.234375 2.359375,-0.511719 1.789063,-0.9375 1.375,-1.5 0.96875,-2.058594 0.753906,-2.695313 0.734375,-3.40625 Z m 0,0"
           style="stroke:none" />
      </symbol>
      <symbol
         id="glyph0-3"
         overflow="visible">
        <path
           inkscape:connector-curvature="0"
           id="path11"
           d="m -0.03125,0 4.515625,-10.625 h 1.6875 L 10.984375,0 h -1.78125 l -1.375,-3.21875 H 2.921875 L 1.625,0 Z M 3.375,-4.359375 H 7.359375 L 6.125,-7.3125 C 5.75,-8.195313 5.472656,-8.929688 5.296875,-9.515625 c -0.15625,0.6875 -0.371094,1.367187 -0.640625,2.03125 z m 0,0"
           style="stroke:none" />
      </symbol>
      <symbol
         id="glyph0-4"
         overflow="visible">
        <path
           inkscape:connector-curvature="0"
           id="path14"
           d=""
           style="stroke:none" />
      </symbol>
      <symbol
         id="glyph0-5"
         overflow="visible">
        <path
           inkscape:connector-curvature="0"
           id="path17"
           d="m 6.90625,-2.484375 1.5,0.171875 c -0.242187,0.792969 -0.679687,1.410156 -1.3125,1.84375 -0.636719,0.4296875 -1.449219,0.640625 -2.4375,0.640625 -1.242187,0 -2.230469,-0.34375 -2.96875,-1.03125 C 0.957031,-1.554688 0.59375,-2.53125 0.59375,-3.78125 c 0,-1.289063 0.367188,-2.296875 1.109375,-3.015625 0.738281,-0.714844 1.695313,-1.078125 2.875,-1.078125 1.132813,0 2.0625,0.355469 2.78125,1.0625 0.726563,0.699219 1.09375,1.683594 1.09375,2.953125 0,0.074219 -0.00781,0.191406 -0.015625,0.34375 H 2.09375 c 0.050781,0.84375 0.3125,1.492187 0.78125,1.9375 0.476563,0.449219 1.078125,0.671875 1.796875,0.671875 0.519531,0 0.96875,-0.125 1.34375,-0.375 C 6.386719,-1.527344 6.6875,-1.929688 6.90625,-2.484375 Z M 2.171875,-4.59375 h 4.75 C 6.859375,-5.238281 6.675781,-5.722656 6.375,-6.046875 c -0.460937,-0.496094 -1.054687,-0.75 -1.78125,-0.75 -0.667969,0 -1.226562,0.207031 -1.671875,0.609375 -0.449219,0.398437 -0.699219,0.929687 -0.75,1.59375 z m 0,0"
           style="stroke:none" />
      </symbol>
      <symbol
         id="glyph0-6"
         overflow="visible">
        <path
           inkscape:connector-curvature="0"
           id="path20"
           d="M 4.234375,-1.171875 4.4375,-0.015625 C 4.03125,0.0546875 3.667969,0.09375 3.359375,0.09375 2.828125,0.09375 2.414063,0.0195313 2.125,-0.125 1.84375,-0.269531 1.636719,-0.460938 1.515625,-0.703125 1.398438,-0.949219 1.34375,-1.46875 1.34375,-2.25 v -4.4375 h -1.0625 v -1.015625 h 1.0625 v -1.90625 l 1.4375,-0.78125 v 2.6875 H 4.234375 V -6.6875 H 2.78125 v 4.5 c 0,0.375 0.023438,0.621094 0.078125,0.734375 0.050781,0.105469 0.132813,0.191406 0.25,0.25 0.113281,0.0625 0.273438,0.09375 0.484375,0.09375 0.164063,0 0.378906,-0.019531 0.640625,-0.0625 z m 0,0"
           style="stroke:none" />
      </symbol>
      <symbol
         id="glyph0-7"
         overflow="visible">
        <path
           inkscape:connector-curvature="0"
           id="path23"
           d="m 1.09375,-9.125 v -1.5 h 1.4375 v 1.5 z m 0,9.125 v -7.703125 h 1.4375 V 0 Z m 0,0"
           style="stroke:none" />
      </symbol>
      <symbol
         id="glyph0-8"
         overflow="visible">
        <path
           inkscape:connector-curvature="0"
           id="path26"
           d="M 1.078125,0 V -7.703125 H 2.375 v 1.09375 C 2.996094,-7.449219 3.90625,-7.875 5.09375,-7.875 c 0.507813,0 0.976563,0.085937 1.40625,0.25 0.433594,0.167969 0.757813,0.386719 0.96875,0.65625 C 7.683594,-6.695313 7.835938,-6.371094 7.921875,-6 7.972656,-5.757813 8,-5.335938 8,-4.734375 V 0 H 6.5625 V -4.6875 C 6.5625,-5.214844 6.503906,-5.613281 6.390625,-5.875 6.273438,-6.132813 6.070313,-6.34375 5.78125,-6.5 5.5,-6.652344 5.164063,-6.734375 4.78125,-6.734375 c -0.617187,0 -1.148437,0.179687 -1.59375,0.53125 -0.4375,0.34375 -0.65625,1.011719 -0.65625,2 V 0 Z m 0,0"
           style="stroke:none" />
      </symbol>
      <symbol
         id="glyph0-9"
         overflow="visible">
        <path
           inkscape:connector-curvature="0"
           id="path29"
           d="m 0.8125,0.640625 1.40625,0.1875 C 2.277344,1.210938 2.441406,1.5 2.703125,1.6875 c 0.363281,0.238281 0.851563,0.359375 1.46875,0.359375 0.675781,0 1.191406,-0.128906 1.546875,-0.375 0.363281,-0.242187 0.613281,-0.574219 0.75,-1 C 6.539063,0.398438 6.570313,-0.15625 6.5625,-1 5.9375,-0.332031 5.148438,0 4.203125,0 3.035156,0 2.128906,-0.378906 1.484375,-1.140625 c -0.636719,-0.769531 -0.953125,-1.6875 -0.953125,-2.75 0,-0.738281 0.144531,-1.414063 0.4375,-2.03125 C 1.257813,-6.542969 1.6875,-7.023438 2.25,-7.359375 2.808594,-7.699219 3.46875,-7.875 4.21875,-7.875 c 0.996094,0 1.828125,0.371094 2.484375,1.109375 v -0.9375 H 8.03125 v 6.65625 C 8.03125,0.148438 7.894531,1 7.625,1.5 7.351563,1.996094 6.925781,2.394531 6.34375,2.6875 5.757813,2.976563 5.039063,3.125 4.1875,3.125 3.164063,3.125 2.339844,2.914063 1.71875,2.5 1.09375,2.09375 0.789063,1.472656 0.8125,0.640625 Z m 1.203125,-4.625 c 0,1.011719 0.21875,1.753906 0.65625,2.21875 0.445313,0.460937 1.003906,0.6875 1.671875,0.6875 0.664063,0 1.222656,-0.226563 1.671875,-0.6875 C 6.460938,-2.230469 6.6875,-2.957031 6.6875,-3.9375 c 0,-0.945313 -0.238281,-1.660156 -0.703125,-2.140625 -0.460937,-0.476563 -1.011719,-0.71875 -1.65625,-0.71875 -0.648437,0 -1.195312,0.242187 -1.640625,0.71875 -0.449219,0.46875 -0.671875,1.167969 -0.671875,2.09375 z m 0,0"
           style="stroke:none" />
      </symbol>
      <symbol
         id="glyph0-10"
         overflow="visible">
        <path
           inkscape:connector-curvature="0"
           id="path32"
           d="M 3.84375,3.125 C 3.039063,2.21875 2.363281,1.152344 1.8125,-0.0625 1.269531,-1.277344 1,-2.539063 1,-3.84375 1,-4.996094 1.203125,-6.101563 1.609375,-7.15625 2.085938,-8.371094 2.832031,-9.59375 3.84375,-10.8125 H 4.875 c -0.648437,1.011719 -1.074219,1.730469 -1.28125,2.15625 -0.324219,0.667969 -0.582031,1.367187 -0.765625,2.09375 -0.230469,0.898437 -0.34375,1.804687 -0.34375,2.71875 0,2.324219 0.796875,4.644531 2.390625,6.96875 z m 0,0"
           style="stroke:none" />
      </symbol>
      <symbol
         id="glyph0-11"
         overflow="visible">
        <path
           inkscape:connector-curvature="0"
           id="path35"
           d="M 6.609375,0 V -0.96875 C 6.066406,-0.207031 5.269531,0.171875 4.21875,0.171875 c -0.679687,0 -1.304687,-0.16796875 -1.875,-0.5 C 1.78125,-0.667969 1.339844,-1.144531 1.03125,-1.75 0.71875,-2.351563 0.5625,-3.050781 0.5625,-3.84375 0.5625,-4.613281 0.703125,-5.3125 0.984375,-5.9375 1.261719,-6.558594 1.6875,-7.039063 2.25,-7.375 c 0.570313,-0.332031 1.207031,-0.5 1.90625,-0.5 0.519531,0 0.976563,0.101562 1.375,0.296875 0.402344,0.199219 0.734375,0.457031 0.984375,0.765625 v -3.8125 h 1.4375 V 0 Z m -4.5625,-3.84375 c 0,0.992187 0.226563,1.730469 0.6875,2.21875 0.457031,0.480469 1,0.71875 1.625,0.71875 0.632813,0 1.171875,-0.226563 1.609375,-0.6875 0.433594,-0.464844 0.65625,-1.179688 0.65625,-2.140625 0,-1.050781 -0.226562,-1.820313 -0.671875,-2.3125 -0.449219,-0.496094 -1.003906,-0.75 -1.65625,-0.75 -0.648437,0 -1.183594,0.242187 -1.609375,0.71875 -0.429687,0.46875 -0.640625,1.214844 -0.640625,2.234375 z m 0,0"
           style="stroke:none" />
      </symbol>
      <symbol
         id="glyph0-12"
         overflow="visible">
        <path
           inkscape:connector-curvature="0"
           id="path38"
           d="m 1.203125,0 v -10.625 h 4.40625 c 0.894531,0 1.613281,0.113281 2.15625,0.328125 0.550781,0.210937 0.976563,0.539062 1.28125,0.984375 0.308594,0.449219 0.46875,0.917969 0.46875,1.40625 0,0.460937 -0.144531,0.894531 -0.421875,1.296875 C 8.820313,-6.210938 8.410156,-5.894531 7.859375,-5.65625 8.574219,-5.46875 9.125,-5.144531 9.5,-4.6875 c 0.382813,0.449219 0.578125,0.988281 0.578125,1.609375 0,0.5 -0.121094,0.964844 -0.359375,1.390625 -0.230469,0.429687 -0.519531,0.757812 -0.859375,0.984375 -0.335937,0.230469 -0.761719,0.410156 -1.28125,0.53125 C 7.066406,-0.0546875 6.433594,0 5.6875,0 Z m 1.5625,-6.15625 h 2.53125 c 0.683594,0 1.179688,-0.039063 1.484375,-0.125 0.394531,-0.101563 0.691406,-0.28125 0.890625,-0.53125 0.207031,-0.246094 0.3125,-0.554688 0.3125,-0.921875 0,-0.351563 -0.097656,-0.664063 -0.28125,-0.9375 C 7.515625,-8.941406 7.242188,-9.125 6.890625,-9.21875 6.546875,-9.320313 5.949219,-9.375 5.109375,-9.375 h -2.34375 z m 0,4.90625 H 5.6875 c 0.496094,0 0.851563,-0.015625 1.0625,-0.046875 0.351563,-0.058594 0.648438,-0.160156 0.890625,-0.296875 0.238281,-0.132813 0.4375,-0.332031 0.59375,-0.59375 0.152344,-0.257813 0.234375,-0.554688 0.234375,-0.890625 0,-0.394531 -0.117187,-0.738281 -0.34375,-1.03125 C 7.90625,-4.398438 7.589844,-4.601563 7.1875,-4.71875 6.789063,-4.839844 6.222656,-4.90625 5.484375,-4.90625 h -2.71875 z m 0,0"
           style="stroke:none" />
      </symbol>
      <symbol
         id="glyph0-13"
         overflow="visible">
        <path
           inkscape:connector-curvature="0"
           id="path41"
           d="M 2.03125,3.125 H 1 c 1.589844,-2.324219 2.390625,-4.644531 2.390625,-6.96875 0,-0.902344 -0.117187,-1.804688 -0.34375,-2.703125 C 2.867188,-7.261719 2.613281,-7.957031 2.28125,-8.625 2.070313,-9.058594 1.644531,-9.789063 1,-10.8125 h 1.03125 c 0.996094,1.21875 1.742188,2.441406 2.234375,3.65625 0.402344,1.054687 0.609375,2.160156 0.609375,3.3125 0,1.304687 -0.277344,2.566406 -0.828125,3.78125 C 3.492188,1.152344 2.820313,2.21875 2.03125,3.125 Z m 0,0"
           style="stroke:none" />
      </symbol>
      <symbol
         id="glyph0-14"
         overflow="visible">
        <path
           inkscape:connector-curvature="0"
           id="path44"
           d="m 0.6875,-5.234375 c 0,-1.257813 0.140625,-2.269531 0.421875,-3.03125 0.289063,-0.769531 0.71875,-1.363281 1.28125,-1.78125 0.558594,-0.414063 1.269531,-0.625 2.125,-0.625 0.621094,0 1.175781,0.117187 1.65625,0.34375 0.476563,0.230469 0.867188,0.566406 1.171875,1 0.308594,0.429687 0.554688,0.957031 0.734375,1.578125 0.175781,0.625 0.265625,1.464844 0.265625,2.515625 0,1.242187 -0.144531,2.246094 -0.421875,3.015625 -0.28125,0.761719 -0.707031,1.355469 -1.265625,1.78125 -0.5625,0.4179687 -1.277344,0.625 -2.140625,0.625 -1.136719,0 -2.027344,-0.367188 -2.671875,-1.109375 C 1.070313,-1.804688 0.6875,-3.242188 0.6875,-5.234375 Z m 1.484375,0 c 0,1.742187 0.222656,2.902344 0.671875,3.484375 0.445313,0.574219 1.003906,0.859375 1.671875,0.859375 0.664063,0 1.222656,-0.285156 1.671875,-0.859375 0.445313,-0.582031 0.671875,-1.742188 0.671875,-3.484375 0,-1.746094 -0.226562,-2.910156 -0.671875,-3.484375 -0.449219,-0.582031 -1.011719,-0.875 -1.6875,-0.875 -0.667969,0 -1.199219,0.257812 -1.59375,0.765625 -0.492187,0.648437 -0.734375,1.847656 -0.734375,3.59375 z m 0,0"
           style="stroke:none" />
      </symbol>
      <symbol
         id="glyph0-15"
         overflow="visible">
        <path
           inkscape:connector-curvature="0"
           id="path47"
           d="M 8.265625,-1.25 V 0 H 0.5 C 0.488281,-0.308594 0.546875,-0.613281 0.671875,-0.90625 0.867188,-1.382813 1.179688,-1.851563 1.609375,-2.3125 2.042969,-2.777344 2.675781,-3.316406 3.5,-3.921875 4.777344,-4.867188 5.644531,-5.617188 6.09375,-6.171875 6.539063,-6.730469 6.765625,-7.257813 6.765625,-7.75 6.765625,-8.269531 6.558594,-8.707031 6.15625,-9.0625 5.75,-9.414063 5.210938,-9.59375 4.546875,-9.59375 c -0.6875,0 -1.242187,0.195312 -1.65625,0.578125 -0.417969,0.375 -0.632812,0.898437 -0.640625,1.5625 L 0.765625,-7.59375 C 0.867188,-8.589844 1.25,-9.351563 1.90625,-9.875 c 0.664063,-0.527344 1.5625,-0.796875 2.6875,-0.796875 1.121094,0 2.015625,0.289062 2.671875,0.859375 C 7.917969,-9.25 8.25,-8.550781 8.25,-7.71875 8.25,-7.289063 8.148438,-6.867188 7.953125,-6.453125 7.765625,-6.046875 7.445313,-5.613281 7,-5.15625 6.550781,-4.707031 5.808594,-4.085938 4.78125,-3.296875 3.914063,-2.640625 3.355469,-2.191406 3.109375,-1.953125 2.867188,-1.722656 2.664063,-1.488281 2.5,-1.25 Z m 0,0"
           style="stroke:none" />
      </symbol>
      <symbol
         id="glyph0-16"
         overflow="visible">
        <path
           inkscape:connector-curvature="0"
           id="path50"
           d="M 5.3125,0 V -2.546875 H 0.203125 v -1.1875 l 5.375,-6.890625 H 6.75 v 6.890625 h 1.59375 v 1.1875 H 6.75 V 0 Z m 0,-3.734375 V -8.53125 L 1.625,-3.734375 Z m 0,0"
           style="stroke:none" />
      </symbol>
      <symbol
         id="glyph0-17"
         overflow="visible">
        <path
           inkscape:connector-curvature="0"
           id="path53"
           d="m 8.171875,-8.03125 -1.4375,0.109375 C 6.609375,-8.429688 6.425781,-8.800781 6.1875,-9.03125 5.800781,-9.402344 5.320313,-9.59375 4.75,-9.59375 c -0.460937,0 -0.867187,0.117187 -1.21875,0.34375 -0.449219,0.304687 -0.808594,0.742187 -1.078125,1.3125 -0.261719,0.574219 -0.398437,1.394531 -0.40625,2.453125 0.351563,-0.476563 0.78125,-0.832031 1.28125,-1.0625 0.496094,-0.226563 1.023438,-0.34375 1.578125,-0.34375 0.957031,0 1.773438,0.324219 2.453125,0.96875 0.675781,0.636719 1.015625,1.460937 1.015625,2.46875 0,0.667969 -0.164062,1.289062 -0.484375,1.859375 -0.3125,0.574219 -0.753906,1.019531 -1.3125,1.328125 C 6.023438,0.0351563 5.398438,0.1875 4.703125,0.1875 3.492188,0.1875 2.507813,-0.210938 1.75,-1.015625 1,-1.816406 0.625,-3.132813 0.625,-4.96875 c 0,-2.050781 0.414063,-3.546875 1.25,-4.484375 0.726563,-0.808594 1.710938,-1.21875 2.953125,-1.21875 0.925781,0 1.6875,0.238281 2.28125,0.703125 0.589844,0.46875 0.945313,1.117187 1.0625,1.9375 z M 2.28125,-3.4375 c 0,0.449219 0.101563,0.882812 0.3125,1.296875 0.207031,0.40625 0.5,0.722656 0.875,0.9375 0.382813,0.210937 0.785156,0.3125 1.203125,0.3125 0.613281,0 1.140625,-0.21875 1.578125,-0.65625 C 6.683594,-1.992188 6.90625,-2.601563 6.90625,-3.375 6.90625,-4.101563 6.683594,-4.675781 6.25,-5.09375 5.820313,-5.519531 5.277344,-5.734375 4.625,-5.734375 c -0.65625,0 -1.214844,0.214844 -1.671875,0.640625 C 2.503906,-4.675781 2.28125,-4.121094 2.28125,-3.4375 Z m 0,0"
           style="stroke:none" />
      </symbol>
      <symbol
         id="glyph0-18"
         overflow="visible">
        <path
           inkscape:connector-curvature="0"
           id="path56"
           d="M 2.90625,-5.765625 C 2.300781,-5.960938 1.851563,-6.242188 1.5625,-6.609375 1.28125,-6.972656 1.140625,-7.410156 1.140625,-7.921875 c 0,-0.777344 0.304688,-1.429688 0.921875,-1.953125 0.613281,-0.527344 1.429688,-0.796875 2.453125,-0.796875 1.019531,0 1.84375,0.273437 2.46875,0.8125 0.632813,0.542969 0.953125,1.199219 0.953125,1.96875 0,0.492187 -0.148437,0.917969 -0.4375,1.28125 -0.28125,0.367187 -0.714844,0.648437 -1.296875,0.84375 0.714844,0.21875 1.265625,0.570312 1.640625,1.046875 0.371094,0.46875 0.5625,1.035156 0.5625,1.6875 0,0.90625 -0.355469,1.675781 -1.0625,2.296875 C 6.632813,-0.117188 5.695313,0.1875 4.53125,0.1875 3.375,0.1875 2.441406,-0.125 1.734375,-0.75 1.023438,-1.371094 0.671875,-2.148438 0.671875,-3.078125 0.671875,-3.761719 0.863281,-4.34375 1.25,-4.8125 1.632813,-5.277344 2.1875,-5.597656 2.90625,-5.765625 Z M 2.609375,-7.96875 c 0,0.5 0.175781,0.914062 0.53125,1.234375 0.363281,0.3125 0.832031,0.46875 1.40625,0.46875 0.550781,0 1.003906,-0.15625 1.359375,-0.46875 0.363281,-0.320313 0.546875,-0.710938 0.546875,-1.171875 0,-0.476563 -0.191406,-0.878906 -0.5625,-1.203125 C 5.523438,-9.429688 5.070313,-9.59375 4.53125,-9.59375 c -0.554687,0 -1.011719,0.164062 -1.375,0.484375 -0.367187,0.3125 -0.546875,0.695312 -0.546875,1.140625 z M 2.15625,-3.0625 c 0,0.375 0.09375,0.738281 0.28125,1.078125 0.195313,0.34375 0.488281,0.617187 0.875,0.8125 0.382813,0.1875 0.796875,0.28125 1.234375,0.28125 0.695313,0 1.269531,-0.195313 1.71875,-0.59375 0.445313,-0.402344 0.671875,-0.914063 0.671875,-1.53125 0,-0.632813 -0.238281,-1.15625 -0.703125,-1.5625 -0.460937,-0.414063 -1.039062,-0.625 -1.734375,-0.625 -0.679687,0 -1.242187,0.207031 -1.6875,0.609375 C 2.375,-4.1875 2.15625,-3.675781 2.15625,-3.0625 Z m 0,0"
           style="stroke:none" />
      </symbol>
      <symbol
         id="glyph0-19"
         overflow="visible">
        <path
           inkscape:connector-curvature="0"
           id="path59"
           d="M 6.125,0 H 4.671875 V -8.3125 C 4.328125,-8.007813 3.871094,-7.707031 3.3125,-7.40625 2.75,-7.113281 2.238281,-6.886719 1.78125,-6.734375 V -8 c 0.808594,-0.339844 1.519531,-0.757813 2.125,-1.25 0.601563,-0.488281 1.03125,-0.960938 1.28125,-1.421875 H 6.125 Z m 0,0"
           style="stroke:none" />
      </symbol>
      <symbol
         id="glyph0-20"
         overflow="visible">
        <path
           inkscape:connector-curvature="0"
           id="path62"
           d="M 0.515625,-3.1875 V -4.5 h 4.4375 v 1.3125 z m 0,0"
           style="stroke:none" />
      </symbol>
      <symbol
         id="glyph0-21"
         overflow="visible">
        <path
           inkscape:connector-curvature="0"
           id="path65"
           d="M 1.296875,0 V -10.625 H 6.5 c 1.050781,0 1.847656,0.101562 2.390625,0.296875 0.539063,0.1875 0.972656,0.523437 1.296875,1 0.332031,0.480469 0.5,1.019531 0.5,1.609375 0,0.75 -0.273437,1.386719 -0.8125,1.90625 -0.542969,0.511719 -1.378906,0.839844 -2.5,0.984375 0.414063,0.179687 0.726563,0.351562 0.9375,0.515625 0.457031,0.386719 0.890625,0.863281 1.296875,1.421875 L 11.65625,0 H 9.6875 L 8.140625,-2.203125 C 7.679688,-2.847656 7.304688,-3.335938 7.015625,-3.671875 6.722656,-4.011719 6.457031,-4.253906 6.21875,-4.390625 5.988281,-4.523438 5.753906,-4.617188 5.515625,-4.671875 5.335938,-4.699219 5.050781,-4.71875 4.65625,-4.71875 H 2.84375 V 0 Z M 2.84375,-5.9375 H 6.1875 c 0.707031,0 1.257813,-0.0625 1.65625,-0.1875 0.402344,-0.132813 0.710938,-0.347656 0.921875,-0.640625 0.207031,-0.300781 0.3125,-0.617188 0.3125,-0.953125 0,-0.507813 -0.207031,-0.925781 -0.609375,-1.25 C 8.070313,-9.289063 7.433594,-9.453125 6.5625,-9.453125 H 2.84375 Z m 0,0"
           style="stroke:none" />
      </symbol>
      <symbol
         id="glyph0-22"
         overflow="visible">
        <path
           inkscape:connector-curvature="0"
           id="path68"
           d="M 0.078125,0 4.625,-5.53125 0.609375,-10.625 H 2.46875 l 2.125,2.71875 c 0.445313,0.574219 0.765625,1.011719 0.953125,1.3125 0.257813,-0.382813 0.566406,-0.789063 0.921875,-1.21875 l 2.375,-2.8125 h 1.6875 L 6.40625,-5.609375 10.84375,0 H 8.921875 L 5.96875,-3.796875 C 5.800781,-4.003906 5.628906,-4.238281 5.453125,-4.5 5.191406,-4.113281 5.003906,-3.847656 4.890625,-3.703125 L 1.9375,0 Z m 0,0"
           style="stroke:none" />
      </symbol>
      <symbol
         id="glyph0-23"
         overflow="visible">
        <path
           inkscape:connector-curvature="0"
           id="path71"
           d="m 0.6875,-2.8125 1.453125,-0.171875 c 0.152344,0.742187 0.429688,1.277344 0.828125,1.609375 0.402344,0.324219 0.894531,0.484375 1.46875,0.484375 0.675781,0 1.25,-0.210938 1.71875,-0.640625 0.464844,-0.425781 0.703125,-0.953125 0.703125,-1.578125 0,-0.601563 -0.222656,-1.097656 -0.65625,-1.484375 -0.429687,-0.382813 -0.980469,-0.578125 -1.65625,-0.578125 -0.273437,0 -0.613281,0.050781 -1.015625,0.140625 l 0.171875,-1.140625 c 0.089844,0.011719 0.164063,0.015625 0.21875,0.015625 0.613281,0 1.164063,-0.144531 1.65625,-0.4375 0.496094,-0.289063 0.75,-0.738281 0.75,-1.34375 0,-0.476563 -0.183594,-0.875 -0.546875,-1.1875 -0.355469,-0.308594 -0.816406,-0.46875 -1.375,-0.46875 -0.5625,0 -1.035156,0.164062 -1.40625,0.484375 -0.375,0.3125 -0.617187,0.789062 -0.71875,1.421875 L 0.828125,-7.921875 c 0.175781,-0.871094 0.578125,-1.550781 1.203125,-2.03125 0.621094,-0.476563 1.40625,-0.71875 2.34375,-0.71875 0.632813,0 1.222656,0.128906 1.765625,0.375 0.539063,0.25 0.953125,0.597656 1.234375,1.03125 0.289063,0.429687 0.4375,0.882812 0.4375,1.359375 0,0.460937 -0.144531,0.878906 -0.421875,1.25 -0.273437,0.375 -0.675781,0.679687 -1.203125,0.90625 0.695313,0.148437 1.238281,0.449219 1.625,0.90625 0.382813,0.449219 0.578125,1.019531 0.578125,1.703125 0,0.929687 -0.378906,1.714844 -1.125,2.359375 -0.75,0.648437 -1.699219,0.96875 -2.84375,0.96875 -1.03125,0 -1.894531,-0.2734375 -2.578125,-0.828125 C 1.164063,-1.199219 0.777344,-1.925781 0.6875,-2.8125 Z m 0,0"
           style="stroke:none" />
      </symbol>
      <symbol
         id="glyph1-0"
         overflow="visible">
        <path
           inkscape:connector-curvature="0"
           id="path74"
           d="M 0,-1.859375 H -10.265625 V -9.28125 H 0 Z M -0.25,-2.09375 V -9.046875 H -10 v 6.953125 z m 0,0"
           style="stroke:none" />
      </symbol>
      <symbol
         id="glyph1-1"
         overflow="visible">
        <path
           inkscape:connector-curvature="0"
           id="path77"
           d="m -4.125,-8.71875 0.390625,-1.40625 c 1.28125,0.292969 2.261719,0.824219 2.9375,1.59375 0.667969,0.761719 1,1.695312 1,2.796875 0,1.148437 -0.2539063,2.082031 -0.765625,2.796875 -0.519531,0.71875 -1.269531,1.269531 -2.25,1.640625 -0.976563,0.375 -2.03125,0.5625 -3.15625,0.5625 -1.214844,0 -2.28125,-0.207031 -3.1875,-0.625 -0.914063,-0.425781 -1.609375,-1.03125 -2.078125,-1.8125 -0.476563,-0.777344 -0.71875,-1.640625 -0.71875,-2.578125 0,-1.058594 0.304687,-1.957031 0.90625,-2.6875 0.59375,-0.726563 1.433594,-1.234375 2.515625,-1.515625 l 0.359375,1.390625 c -0.851563,0.242187 -1.472656,0.597656 -1.859375,1.0625 -0.394531,0.46875 -0.59375,1.066406 -0.59375,1.78125 0,0.8125 0.222656,1.496094 0.65625,2.046875 0.429687,0.542969 1.007812,0.929687 1.734375,1.15625 0.730469,0.21875 1.488281,0.328125 2.265625,0.328125 1,0 1.878906,-0.128906 2.625,-0.390625 0.742187,-0.269531 1.300781,-0.679688 1.671875,-1.234375 0.367187,-0.550781 0.546875,-1.148438 0.546875,-1.796875 0,-0.789063 -0.25,-1.457031 -0.75,-2 -0.507813,-0.550781 -1.257813,-0.921875 -2.25,-1.109375 z m 0,0"
           style="stroke:none" />
      </symbol>
      <symbol
         id="glyph1-2"
         overflow="visible">
        <path
           inkscape:connector-curvature="0"
           id="path80"
           d="m -1.046875,-6 c 0.449219,0.480469 0.769531,0.945312 0.953125,1.390625 0.1835938,0.449219 0.28125,0.929687 0.28125,1.4375 0,0.84375 -0.2226563,1.496094 -0.671875,1.953125 -0.457031,0.460937 -1.046875,0.6875 -1.765625,0.6875 -0.414063,0 -0.796875,-0.082031 -1.140625,-0.25 -0.339844,-0.175781 -0.617188,-0.40625 -0.828125,-0.6875 -0.207031,-0.277344 -0.363281,-0.59375 -0.46875,-0.9375 -0.070313,-0.257813 -0.144531,-0.644531 -0.21875,-1.15625 -0.132813,-1.050781 -0.300781,-1.828125 -0.5,-2.328125 -0.195313,-0.00781 -0.320313,-0.015625 -0.375,-0.015625 -0.582031,0 -1,0.128906 -1.25,0.375 -0.320313,0.335937 -0.484375,0.832031 -0.484375,1.484375 0,0.617187 0.121094,1.070312 0.359375,1.359375 0.242187,0.292969 0.664062,0.511719 1.265625,0.65625 l -0.203125,1.265625 c -0.589844,-0.113281 -1.078125,-0.300781 -1.453125,-0.5625 -0.371094,-0.269531 -0.660156,-0.65625 -0.859375,-1.15625 -0.195313,-0.496094 -0.296875,-1.082031 -0.296875,-1.75 0,-0.652344 0.089844,-1.1875 0.265625,-1.59375 0.167969,-0.414063 0.382812,-0.71875 0.640625,-0.90625 0.25,-0.195313 0.574219,-0.332031 0.96875,-0.40625 0.25,-0.050781 0.695312,-0.078125 1.328125,-0.078125 h 1.9375 c 1.335937,0 2.183594,-0.023438 2.546875,-0.078125 C -0.660156,-7.347656 -0.320313,-7.457031 0,-7.625 v 1.359375 C -0.300781,-6.128906 -0.648438,-6.039063 -1.046875,-6 Z m -3.234375,0.109375 c 0.21875,0.46875 0.402344,1.179687 0.546875,2.125 0.09375,0.542969 0.195312,0.925781 0.296875,1.140625 0.105469,0.21875 0.261719,0.394531 0.46875,0.515625 0.210937,0.125 0.441406,0.1875 0.6875,0.1875 0.386719,0 0.710937,-0.128906 0.96875,-0.390625 0.25,-0.269531 0.375,-0.660156 0.375,-1.171875 0,-0.496094 -0.117188,-0.941406 -0.359375,-1.328125 -0.246094,-0.394531 -0.582031,-0.6875 -1,-0.875 C -2.628906,-5.820313 -3.113281,-5.890625 -3.75,-5.890625 Z m 0,0"
           style="stroke:none" />
      </symbol>
      <symbol
         id="glyph1-3"
         overflow="visible">
        <path
           inkscape:connector-curvature="0"
           id="path83"
           d="M 0,-0.953125 H -11.75 V -2.25 H 0 Z m 0,0"
           style="stroke:none" />
      </symbol>
      <symbol
         id="glyph1-4"
         overflow="visible">
        <path
           inkscape:connector-curvature="0"
           id="path86"
           d="M -10.09375,-0.984375 H -11.75 v -1.3125 h 1.65625 z m 10.09375,0 h -8.515625 v -1.3125 H 0 Z m 0,0"
           style="stroke:none" />
      </symbol>
      <symbol
         id="glyph1-5"
         overflow="visible">
        <path
           inkscape:connector-curvature="0"
           id="path89"
           d="m 0,-2.1875 v 1.21875 h -11.75 v -1.3125 h 4.1875 c -0.757813,-0.550781 -1.140625,-1.253906 -1.140625,-2.109375 0,-0.464844 0.105469,-0.910156 0.3125,-1.328125 0.210937,-0.425781 0.507812,-0.773438 0.890625,-1.046875 0.386719,-0.277344 0.851562,-0.492188 1.390625,-0.640625 0.53125,-0.152344 1.105469,-0.234375 1.71875,-0.234375 1.460937,0 2.589844,0.332031 3.390625,0.984375 0.792969,0.648437 1.1875,1.429687 1.1875,2.34375 0,0.90625 -0.414063,1.617187 -1.25,2.125 z m -4.328125,0.015625 c 1.023437,0 1.761719,-0.125 2.21875,-0.375 C -1.367188,-2.949219 -1,-3.507813 -1,-4.21875 c 0,-0.558594 -0.269531,-1.050781 -0.8125,-1.46875 -0.550781,-0.414063 -1.367188,-0.625 -2.453125,-0.625 -1.113281,0 -1.929688,0.207031 -2.453125,0.609375 -0.527344,0.398437 -0.796875,0.878906 -0.796875,1.4375 0,0.574219 0.277344,1.070312 0.828125,1.484375 0.542969,0.40625 1.332031,0.609375 2.359375,0.609375 z m 0,0"
           style="stroke:none" />
      </symbol>
      <symbol
         id="glyph1-6"
         overflow="visible">
        <path
           inkscape:connector-curvature="0"
           id="path92"
           d="m 0,-0.96875 h -8.515625 v -1.171875 h 1.296875 c -0.601563,-0.300781 -1,-0.578125 -1.1875,-0.828125 C -8.601563,-3.214844 -8.703125,-3.5 -8.703125,-3.8125 c 0,-0.433594 0.152344,-0.878906 0.453125,-1.328125 l 1.34375,0.4375 c -0.207031,0.324219 -0.3125,0.648437 -0.3125,0.96875 0,0.28125 0.101562,0.539062 0.296875,0.765625 0.1875,0.230469 0.449219,0.394531 0.78125,0.484375 0.511719,0.148437 1.074219,0.21875 1.6875,0.21875 H 0 Z m 0,0"
           style="stroke:none" />
      </symbol>
      <symbol
         id="glyph1-7"
         overflow="visible">
        <path
           inkscape:connector-curvature="0"
           id="path95"
           d="m -1.296875,-3.828125 1.28125,-0.1875 c 0.0820313,0.367187 0.125,0.695312 0.125,0.984375 0,0.480469 -0.0859375,0.851562 -0.25,1.109375 C -0.304688,-1.660156 -0.519531,-1.476563 -0.78125,-1.375 -1.050781,-1.269531 -1.625,-1.21875 -2.5,-1.21875 h -4.890625 v 0.953125 h -1.125 V -1.21875 H -10.625 l -0.859375,-1.296875 h 2.96875 v -1.3125 h 1.125 v 1.3125 h 4.984375 c 0.40625,0 0.675781,-0.019531 0.796875,-0.0625 0.117187,-0.050781 0.210937,-0.128906 0.28125,-0.234375 0.0625,-0.101563 0.09375,-0.25 0.09375,-0.4375 0,-0.144531 -0.019531,-0.335938 -0.0625,-0.578125 z m 0,0"
           style="stroke:none" />
      </symbol>
      <symbol
         id="glyph1-8"
         overflow="visible">
        <path
           inkscape:connector-curvature="0"
           id="path98"
           d="m -2.75,-6.25 0.1875,-1.34375 c 0.875,0.210937 1.554687,0.605469 2.03125,1.1875 0.4804687,0.574219 0.71875,1.304687 0.71875,2.1875 0,1.136719 -0.378906,2.035156 -1.140625,2.6875 -0.769531,0.65625 -1.847656,0.984375 -3.234375,0.984375 -1.425781,0 -2.535156,-0.332031 -3.328125,-1 -0.789063,-0.664063 -1.1875,-1.53125 -1.1875,-2.59375 0,-1.027344 0.394531,-1.867188 1.171875,-2.515625 0.773437,-0.652344 1.855469,-0.984375 3.25,-0.984375 0.09375,0 0.226562,0.00781 0.390625,0.015625 v 5.734375 c 0.9375,-0.050781 1.660156,-0.289063 2.15625,-0.71875 C -1.242188,-3.035156 -1,-3.570313 -1,-4.21875 -1,-4.695313 -1.132813,-5.101563 -1.40625,-5.4375 -1.683594,-5.777344 -2.132813,-6.050781 -2.75,-6.25 Z m -2.328125,4.28125 v -4.296875 c -0.714844,0.0625 -1.253906,0.230469 -1.609375,0.5 -0.550781,0.417969 -0.828125,0.957031 -0.828125,1.609375 0,0.605469 0.226562,1.113281 0.671875,1.515625 0.4375,0.40625 1.027344,0.632812 1.765625,0.671875 z m 0,0"
           style="stroke:none" />
      </symbol>
      <symbol
         id="glyph1-9"
         overflow="visible">
        <path
           inkscape:connector-curvature="0"
           id="path101"
           d="m 0,-5.96875 h -1.078125 c 0.84375,0.492187 1.265625,1.210937 1.265625,2.15625 0,0.605469 -0.1875,1.167969 -0.5625,1.6875 -0.371094,0.511719 -0.894531,0.914062 -1.5625,1.203125 C -2.601563,-0.640625 -3.375,-0.5 -4.25,-0.5 c -0.851563,0 -1.625,-0.128906 -2.3125,-0.390625 -0.683594,-0.257813 -1.210938,-0.644531 -1.578125,-1.15625 -0.371094,-0.507813 -0.5625,-1.082031 -0.5625,-1.71875 0,-0.457031 0.113281,-0.867188 0.328125,-1.234375 0.210937,-0.363281 0.492187,-0.660156 0.84375,-0.890625 H -11.75 V -7.1875 H 0 Z m -4.25,4.125 c 1.09375,0 1.914062,-0.207031 2.453125,-0.625 C -1.265625,-2.882813 -1,-3.375 -1,-3.9375 -1,-4.507813 -1.253906,-4.992188 -1.765625,-5.390625 -2.285156,-5.792969 -3.070313,-6 -4.125,-6 c -1.164063,0 -2.019531,0.207031 -2.5625,0.609375 -0.550781,0.40625 -0.828125,0.910156 -0.828125,1.5 0,0.585937 0.269531,1.074219 0.796875,1.46875 0.523437,0.386719 1.347656,0.578125 2.46875,0.578125 z m 0,0"
           style="stroke:none" />
      </symbol>
      <symbol
         id="glyph1-10"
         overflow="visible">
        <path
           inkscape:connector-curvature="0"
           id="path104"
           d=""
           style="stroke:none" />
      </symbol>
      <symbol
         id="glyph1-11"
         overflow="visible">
        <path
           inkscape:connector-curvature="0"
           id="path107"
           d="m 0,-1.390625 h -11.75 v -1.40625 H 0 Z m 0,0"
           style="stroke:none" />
      </symbol>
      <symbol
         id="glyph1-12"
         overflow="visible">
        <path
           inkscape:connector-curvature="0"
           id="path110"
           d="M 0,-0.984375 H -8.515625 V -2.15625 H -7.3125 c -0.925781,-0.558594 -1.390625,-1.378906 -1.390625,-2.453125 0,-0.457031 0.097656,-0.878906 0.28125,-1.265625 0.179687,-0.394531 0.417969,-0.6875 0.71875,-0.875 0.304687,-0.195313 0.660156,-0.332031 1.0625,-0.40625 0.273437,-0.050781 0.742187,-0.078125 1.40625,-0.078125 H 0 v 1.3125 h -5.1875 c -0.582031,0 -1.019531,0.054687 -1.3125,0.15625 -0.289063,0.09375 -0.519531,0.273437 -0.6875,0.53125 -0.175781,0.261719 -0.265625,0.566406 -0.265625,0.90625 0,0.554687 0.199219,1.035156 0.59375,1.4375 0.386719,0.40625 1.121094,0.609375 2.203125,0.609375 H 0 Z m 0,0"
           style="stroke:none" />
      </symbol>
      <symbol
         id="glyph1-13"
         overflow="visible">
        <path
           inkscape:connector-curvature="0"
           id="path113"
           d="M 0.703125,-0.734375 0.921875,-2 c 0.425781,-0.058594 0.738281,-0.210938 0.9375,-0.453125 0.269531,-0.320313 0.40625,-0.765625 0.40625,-1.328125 0,-0.601563 -0.136719,-1.066406 -0.40625,-1.390625 C 1.585938,-5.503906 1.210938,-5.726563 0.734375,-5.84375 0.441406,-5.902344 -0.171875,-5.9375 -1.109375,-5.9375 -0.367188,-5.363281 0,-4.652344 0,-3.8125 0,-2.75 -0.421875,-1.925781 -1.265625,-1.34375 -2.105469,-0.769531 -3.125,-0.484375 -4.3125,-0.484375 c -0.808594,0 -1.554688,-0.128906 -2.234375,-0.390625 -0.683594,-0.269531 -1.21875,-0.65625 -1.59375,-1.15625 -0.371094,-0.507813 -0.5625,-1.101563 -0.5625,-1.78125 0,-0.902344 0.410156,-1.65625 1.21875,-2.25 h -1.03125 v -1.203125 h 7.359375 c 1.320313,0 2.257813,0.128906 2.8125,0.375 0.558594,0.242187 1,0.628906 1.3125,1.15625 0.320313,0.53125 0.484375,1.183594 0.484375,1.953125 0,0.917969 -0.230469,1.664062 -0.6875,2.234375 -0.460937,0.5625 -1.148437,0.835937 -2.0625,0.8125 z M -4.40625,-1.8125 c 1.117187,0 1.933594,-0.195313 2.453125,-0.59375 0.511719,-0.402344 0.765625,-0.910156 0.765625,-1.515625 0,-0.601563 -0.253906,-1.109375 -0.765625,-1.515625 -0.507813,-0.402344 -1.3125,-0.609375 -2.40625,-0.609375 -1.039063,0 -1.828125,0.210937 -2.359375,0.625 -0.527344,0.417969 -0.796875,0.925781 -0.796875,1.515625 0,0.585937 0.261719,1.082031 0.78125,1.484375 0.523437,0.40625 1.300781,0.609375 2.328125,0.609375 z m 0,0"
           style="stroke:none" />
      </symbol>
      <symbol
         id="glyph1-14"
         overflow="visible">
        <path
           inkscape:connector-curvature="0"
           id="path116"
           d="M 0,-1.140625 H -11.75 V -5.15625 c 0,-0.707031 0.03906,-1.242188 0.109375,-1.609375 0.09375,-0.519531 0.277344,-0.957031 0.546875,-1.3125 0.273437,-0.351563 0.652344,-0.632813 1.140625,-0.84375 0.480469,-0.214844 1.011719,-0.328125 1.59375,-0.328125 1,0 1.851562,0.289062 2.546875,0.859375 0.6875,0.574219 1.03125,1.613281 1.03125,3.109375 v 2.734375 H 0 Z m -6.171875,-1.40625 v -2.75 c 0,-0.902344 -0.179688,-1.550781 -0.546875,-1.9375 C -7.089844,-7.617188 -7.625,-7.8125 -8.3125,-7.8125 c -0.488281,0 -0.90625,0.117187 -1.25,0.34375 -0.351563,0.230469 -0.585938,0.527344 -0.703125,0.890625 -0.07031,0.242187 -0.109375,0.679687 -0.109375,1.3125 v 2.71875 z m 0,0"
           style="stroke:none" />
      </symbol>
      <symbol
         id="glyph1-15"
         overflow="visible">
        <path
           inkscape:connector-curvature="0"
           id="path119"
           d="M 0,-0.984375 H -11.75 V -2.28125 h 4.21875 c -0.777344,-0.613281 -1.171875,-1.382813 -1.171875,-2.3125 0,-0.558594 0.128906,-1.050781 0.375,-1.46875 0.242187,-0.425781 0.585937,-0.726563 1.03125,-0.90625 0.4375,-0.183594 1.074219,-0.28125 1.90625,-0.28125 H 0 v 1.3125 h -5.390625 c -0.726563,0 -1.253906,0.144531 -1.578125,0.421875 -0.332031,0.28125 -0.5,0.683594 -0.5,1.203125 0,0.386719 0.117187,0.753906 0.34375,1.09375 0.21875,0.335937 0.523437,0.574219 0.90625,0.71875 0.375,0.148437 0.898437,0.21875 1.5625,0.21875 H 0 Z m 0,0"
           style="stroke:none" />
      </symbol>
      <symbol
         id="glyph1-16"
         overflow="visible">
        <path
           inkscape:connector-curvature="0"
           id="path122"
           d="M -2.546875,-0.453125 -2.765625,-1.75 c 0.574219,-0.070313 1.011719,-0.269531 1.3125,-0.59375 C -1.148438,-2.675781 -1,-3.140625 -1,-3.734375 c 0,-0.601563 -0.128906,-1.050781 -0.390625,-1.34375 -0.269531,-0.289063 -0.585938,-0.4375 -0.953125,-0.4375 -0.332031,0 -0.59375,0.132812 -0.78125,0.390625 -0.121094,0.179687 -0.285156,0.621094 -0.484375,1.328125 -0.269531,0.960937 -0.5,1.628906 -0.6875,2 -0.195313,0.367187 -0.46875,0.648437 -0.8125,0.84375 -0.339844,0.1875 -0.722656,0.28125 -1.140625,0.28125 -0.382813,0 -0.738281,-0.078125 -1.0625,-0.234375 C -7.632813,-1.058594 -7.898438,-1.273438 -8.109375,-1.546875 -8.273438,-1.753906 -8.414063,-2.03125 -8.53125,-2.375 c -0.113281,-0.351563 -0.171875,-0.734375 -0.171875,-1.140625 0,-0.589844 0.101562,-1.117188 0.296875,-1.578125 0.1875,-0.457031 0.449219,-0.796875 0.78125,-1.015625 0.324219,-0.214844 0.761719,-0.367188 1.3125,-0.453125 l 0.1875,1.28125 c -0.433594,0.054687 -0.773438,0.222656 -1.015625,0.5 -0.246094,0.28125 -0.375,0.675781 -0.375,1.171875 0,0.605469 0.113281,1.039062 0.328125,1.296875 0.21875,0.25 0.476562,0.375 0.765625,0.375 0.1875,0 0.355469,-0.050781 0.5,-0.15625 0.15625,-0.101563 0.289062,-0.269531 0.390625,-0.5 0.054687,-0.132813 0.179687,-0.519531 0.375,-1.15625 0.273437,-0.914063 0.496094,-1.554688 0.671875,-1.921875 0.167969,-0.363281 0.417969,-0.648438 0.75,-0.859375 0.335937,-0.207031 0.746094,-0.3125 1.234375,-0.3125 0.480469,0 0.933594,0.128906 1.359375,0.375 0.429687,0.25 0.757812,0.617187 0.984375,1.09375 0.2265625,0.480469 0.34375,1.023437 0.34375,1.625 0,1 -0.2265625,1.769531 -0.6875,2.296875 -0.457031,0.523437 -1.140625,0.855469 -2.046875,1 z m 0,0"
           style="stroke:none" />
      </symbol>
      <symbol
         id="glyph1-17"
         overflow="visible">
        <path
           inkscape:connector-curvature="0"
           id="path125"
           d="m 0,-1.171875 h -11.75 v -7.6875 h 1.375 v 6.28125 h 3.609375 v -5.875 h 1.375 v 5.875 h 4 v -6.53125 H 0 Z m 0,0"
           style="stroke:none" />
      </symbol>
      <symbol
         id="glyph1-18"
         overflow="visible">
        <path
           inkscape:connector-curvature="0"
           id="path128"
           d="m -4.265625,-0.5 c -1.570313,0 -2.738281,-0.394531 -3.5,-1.1875 -0.621094,-0.652344 -0.9375,-1.460938 -0.9375,-2.421875 0,-1.050781 0.386719,-1.910156 1.15625,-2.578125 0.761719,-0.675781 1.820312,-1.015625 3.171875,-1.015625 1.09375,0 1.960937,0.152344 2.59375,0.453125 0.625,0.292969 1.113281,0.726562 1.453125,1.296875 0.3398438,0.5625 0.515625,1.179687 0.515625,1.84375 0,1.085937 -0.378906,1.960937 -1.140625,2.625 C -1.710938,-0.828125 -2.816406,-0.5 -4.265625,-0.5 Z m 0,-1.328125 c 1.09375,0 1.914062,-0.210938 2.453125,-0.640625 C -1.269531,-2.902344 -1,-3.453125 -1,-4.109375 c 0,-0.644531 -0.269531,-1.179688 -0.8125,-1.609375 -0.539063,-0.425781 -1.375,-0.640625 -2.5,-0.640625 -1.050781,0 -1.847656,0.222656 -2.390625,0.65625 -0.539063,0.429687 -0.8125,0.960937 -0.8125,1.59375 0,0.65625 0.273437,1.207031 0.8125,1.640625 0.542969,0.429687 1.355469,0.640625 2.4375,0.640625 z m 0,0"
           style="stroke:none" />
      </symbol>
      <symbol
         id="glyph1-19"
         overflow="visible">
        <path
           inkscape:connector-curvature="0"
           id="path131"
           d="m 3.453125,-3.46875 c -1,0.71875 -2.175781,1.332031 -3.515625,1.828125 -1.351563,0.492187 -2.753906,0.734375 -4.203125,0.734375 -1.269531,0 -2.488281,-0.179688 -3.65625,-0.546875 -1.339844,-0.433594 -2.6875,-1.109375 -4.03125,-2.015625 v -0.9375 c 1.117187,0.585937 1.910156,0.972656 2.375,1.15625 0.742187,0.292969 1.511719,0.527344 2.3125,0.703125 1,0.210937 2.007812,0.3125 3.015625,0.3125 2.574219,0 5.140625,-0.722656 7.703125,-2.171875 z m 0,0"
           style="stroke:none" />
      </symbol>
      <symbol
         id="glyph1-20"
         overflow="visible">
        <path
           inkscape:connector-curvature="0"
           id="path134"
           d="M 3.453125,-1.828125 V -0.90625 C 0.890625,-2.339844 -1.675781,-3.0625 -4.25,-3.0625 c -0.996094,0 -1.992188,0.105469 -2.984375,0.3125 -0.800781,0.167969 -1.570313,0.398437 -2.3125,0.6875 -0.476563,0.1875 -1.28125,0.574219 -2.40625,1.15625 v -0.921875 c 1.34375,-0.914063 2.691406,-1.585938 4.03125,-2.015625 1.167969,-0.371094 2.386719,-0.5625 3.65625,-0.5625 1.449219,0 2.851562,0.253906 4.203125,0.75 1.339844,0.5 2.515625,1.113281 3.515625,1.828125 z m 0,0"
           style="stroke:none" />
      </symbol>
    </g>
  </defs>
  <g
     transform="translate(-61.902046,-72.599815)"
     id="surface1">
    <g
       id="g147"
       style="fill:#000000;fill-opacity:1">
      <use
         height="100%"
         width="100%"
         id="use141"
         y="402.18549"
         x="281.03018"
         xlink:href="#glyph0-1" />
      <use
         height="100%"
         width="100%"
         id="use143"
         y="402.18549"
         x="292.88232"
         xlink:href="#glyph0-2" />
      <use
         height="100%"
         width="100%"
         id="use145"
         y="402.18549"
         x="303.8316"
         xlink:href="#glyph0-3" />
    </g>
    <g
       id="g155"
       style="fill:#000000;fill-opacity:1">
      <use
         height="100%"
         width="100%"
         id="use149"
         y="402.18549"
         x="314.66599"
         xlink:href="#glyph0-4" />
      <use
         height="100%"
         width="100%"
         id="use151"
         y="402.18549"
         x="319.22955"
         xlink:href="#glyph0-2" />
      <use
         height="100%"
         width="100%"
         id="use153"
         y="402.18549"
         x="330.17883"
         xlink:href="#glyph0-5" />
    </g>
    <g
       id="g163"
       style="fill:#000000;fill-opacity:1">
      <use
         height="100%"
         width="100%"
         id="use157"
         y="402.18549"
         x="339.2403"
         xlink:href="#glyph0-6" />
      <use
         height="100%"
         width="100%"
         id="use159"
         y="402.18549"
         x="343.80386"
         xlink:href="#glyph0-6" />
      <use
         height="100%"
         width="100%"
         id="use161"
         y="402.18549"
         x="348.36746"
         xlink:href="#glyph0-7" />
    </g>
    <g
       id="g169"
       style="fill:#000000;fill-opacity:1">
      <use
         height="100%"
         width="100%"
         id="use165"
         y="402.18549"
         x="351.91324"
         xlink:href="#glyph0-8" />
      <use
         height="100%"
         width="100%"
         id="use167"
         y="402.18549"
         x="361.04037"
         xlink:href="#glyph0-9" />
    </g>
    <g
       id="g181"
       style="fill:#000000;fill-opacity:1">
      <use
         height="100%"
         width="100%"
         id="use171"
         y="402.18549"
         x="370.10187"
         xlink:href="#glyph0-4" />
      <use
         height="100%"
         width="100%"
         id="use173"
         y="402.18549"
         x="374.66544"
         xlink:href="#glyph0-10" />
      <use
         height="100%"
         width="100%"
         id="use175"
         y="402.18549"
         x="380.13187"
         xlink:href="#glyph0-11" />
      <use
         height="100%"
         width="100%"
         id="use177"
         y="402.18549"
         x="389.259"
         xlink:href="#glyph0-12" />
      <use
         height="100%"
         width="100%"
         id="use179"
         y="402.18549"
         x="400.20828"
         xlink:href="#glyph0-13" />
    </g>
    <g
       id="g191"
       style="fill:#000000;fill-opacity:1">
      <use
         height="100%"
         width="100%"
         id="use183"
         y="350.70474"
         x="73.855186"
         xlink:href="#glyph1-1" />
      <use
         height="100%"
         width="100%"
         id="use185"
         y="339.98492"
         x="73.855186"
         xlink:href="#glyph1-2" />
      <use
         height="100%"
         width="100%"
         id="use187"
         y="331.7298"
         x="73.855186"
         xlink:href="#glyph1-3" />
      <use
         height="100%"
         width="100%"
         id="use189"
         y="328.43369"
         x="73.855186"
         xlink:href="#glyph1-4" />
    </g>
    <g
       id="g205"
       style="fill:#000000;fill-opacity:1">
      <use
         height="100%"
         width="100%"
         id="use193"
         y="325.07819"
         x="73.855186"
         xlink:href="#glyph1-5" />
      <use
         height="100%"
         width="100%"
         id="use195"
         y="316.82303"
         x="73.855186"
         xlink:href="#glyph1-6" />
      <use
         height="100%"
         width="100%"
         id="use197"
         y="311.87888"
         x="73.855186"
         xlink:href="#glyph1-2" />
      <use
         height="100%"
         width="100%"
         id="use199"
         y="303.62372"
         x="73.855186"
         xlink:href="#glyph1-7" />
      <use
         height="100%"
         width="100%"
         id="use201"
         y="299.49615"
         x="73.855186"
         xlink:href="#glyph1-8" />
      <use
         height="100%"
         width="100%"
         id="use203"
         y="291.24103"
         x="73.855186"
         xlink:href="#glyph1-9" />
    </g>
    <g
       id="g213"
       style="fill:#000000;fill-opacity:1">
      <use
         height="100%"
         width="100%"
         id="use207"
         y="282.94135"
         x="73.855186"
         xlink:href="#glyph1-10" />
      <use
         height="100%"
         width="100%"
         id="use209"
         y="278.81378"
         x="73.855186"
         xlink:href="#glyph1-11" />
      <use
         height="100%"
         width="100%"
         id="use211"
         y="274.68622"
         x="73.855186"
         xlink:href="#glyph1-12" />
    </g>
    <g
       id="g221"
       style="fill:#000000;fill-opacity:1">
      <use
         height="100%"
         width="100%"
         id="use215"
         y="266.49045"
         x="73.855186"
         xlink:href="#glyph1-7" />
      <use
         height="100%"
         width="100%"
         id="use217"
         y="262.36288"
         x="73.855186"
         xlink:href="#glyph1-8" />
      <use
         height="100%"
         width="100%"
         id="use219"
         y="254.10776"
         x="73.855186"
         xlink:href="#glyph1-13" />
    </g>
    <g
       id="g241"
       style="fill:#000000;fill-opacity:1">
      <use
         height="100%"
         width="100%"
         id="use223"
         y="245.79323"
         x="73.855186"
         xlink:href="#glyph1-6" />
      <use
         height="100%"
         width="100%"
         id="use225"
         y="240.84906"
         x="73.855186"
         xlink:href="#glyph1-2" />
      <use
         height="100%"
         width="100%"
         id="use227"
         y="232.59392"
         x="73.855186"
         xlink:href="#glyph1-7" />
      <use
         height="100%"
         width="100%"
         id="use229"
         y="228.46635"
         x="73.855186"
         xlink:href="#glyph1-8" />
      <use
         height="100%"
         width="100%"
         id="use231"
         y="220.21121"
         x="73.855179"
         xlink:href="#glyph1-9" />
      <use
         height="100%"
         width="100%"
         id="use233"
         y="211.95607"
         x="73.855179"
         xlink:href="#glyph1-10" />
      <use
         height="100%"
         width="100%"
         id="use235"
         y="207.82851"
         x="73.855179"
         xlink:href="#glyph1-14" />
      <use
         height="100%"
         width="100%"
         id="use237"
         y="197.92531"
         x="73.855179"
         xlink:href="#glyph1-15" />
      <use
         height="100%"
         width="100%"
         id="use239"
         y="189.67018"
         x="73.855179"
         xlink:href="#glyph1-2" />
    </g>
    <g
       id="g247"
       style="fill:#000000;fill-opacity:1">
      <use
         height="100%"
         width="100%"
         id="use243"
         y="181.3705"
         x="73.855179"
         xlink:href="#glyph1-16" />
      <use
         height="100%"
         width="100%"
         id="use245"
         y="173.94681"
         x="73.855179"
         xlink:href="#glyph1-8" />
    </g>
    <g
       id="g269"
       style="fill:#000000;fill-opacity:1">
      <use
         height="100%"
         width="100%"
         id="use249"
         y="165.63228"
         x="73.855179"
         xlink:href="#glyph1-10" />
      <use
         height="100%"
         width="100%"
         id="use251"
         y="161.50471"
         x="73.855179"
         xlink:href="#glyph1-17" />
      <use
         height="100%"
         width="100%"
         id="use253"
         y="151.60152"
         x="73.855179"
         xlink:href="#glyph1-6" />
      <use
         height="100%"
         width="100%"
         id="use255"
         y="146.65735"
         x="73.855179"
         xlink:href="#glyph1-6" />
      <use
         height="100%"
         width="100%"
         id="use257"
         y="141.71318"
         x="73.855179"
         xlink:href="#glyph1-18" />
      <use
         height="100%"
         width="100%"
         id="use259"
         y="133.45804"
         x="73.855179"
         xlink:href="#glyph1-6" />
      <use
         height="100%"
         width="100%"
         id="use261"
         y="128.51385"
         x="73.855179"
         xlink:href="#glyph1-10" />
      <use
         height="100%"
         width="100%"
         id="use263"
         y="124.38629"
         x="73.855179"
         xlink:href="#glyph1-19" />
      <use
         height="100%"
         width="100%"
         id="use265"
         y="119.44212"
         x="73.855179"
         xlink:href="#glyph1-9" />
      <use
         height="100%"
         width="100%"
         id="use267"
         y="111.18698"
         x="73.855179"
         xlink:href="#glyph1-8" />
    </g>
    <g
       id="g275"
       style="fill:#000000;fill-opacity:1">
      <use
         height="100%"
         width="100%"
         id="use271"
         y="102.87246"
         x="73.855179"
         xlink:href="#glyph1-13" />
      <use
         height="100%"
         width="100%"
         id="use273"
         y="94.617317"
         x="73.855171"
         xlink:href="#glyph1-20" />
    </g>
    <path
       inkscape:connector-curvature="0"
       id="path277"
       transform="matrix(2.335693,5.88233e-8,-2.00168e-8,-2.112542,51.49,412.11)"
       d="m 29.299996,22.984305 191.279254,6e-6 V 157.95573 l -191.279253,-10e-6 z m 0,0"
       style="fill:none;stroke:#000000;stroke-width:1.0269;stroke-linecap:round;stroke-linejoin:miter;stroke-miterlimit:10;stroke-opacity:1" />
    <g
       id="g281"
       style="fill:#000000;fill-opacity:1">
      <use
         height="100%"
         width="100%"
         id="use279"
         y="385.2955"
         x="115.40856"
         xlink:href="#glyph0-14" />
    </g>
    <path
       inkscape:connector-curvature="0"
       id="path283"
       transform="matrix(2.335693,5.88233e-8,-2.00168e-8,-2.112542,51.49,412.11)"
       d="m 45.23645,157.95018 -10e-7,-134.991761"
       style="fill:none;stroke:#000000;stroke-width:0.14;stroke-linecap:butt;stroke-linejoin:round;stroke-miterlimit:10;stroke-opacity:1" />
    <g
       id="g287"
       style="fill:#000000;fill-opacity:1">
      <use
         height="100%"
         width="100%"
         id="use285"
         y="385.2955"
         x="152.63249"
         xlink:href="#glyph0-15" />
    </g>
    <path
       inkscape:connector-curvature="0"
       id="path289"
       transform="matrix(2.335693,5.88233e-8,-2.00168e-8,-2.112542,51.49,412.11)"
       d="m 61.186283,157.95018 -1e-6,-134.991761"
       style="fill:none;stroke:#000000;stroke-width:0.14;stroke-linecap:butt;stroke-linejoin:round;stroke-miterlimit:10;stroke-opacity:1" />
    <g
       id="g293"
       style="fill:#000000;fill-opacity:1">
      <use
         height="100%"
         width="100%"
         id="use291"
         y="385.2955"
         x="189.8868"
         xlink:href="#glyph0-16" />
    </g>
    <path
       inkscape:connector-curvature="0"
       id="path295"
       transform="matrix(2.335693,5.88233e-8,-2.00168e-8,-2.112542,51.49,412.11)"
       d="m 77.122737,157.95018 -10e-7,-134.99176"
       style="fill:none;stroke:#000000;stroke-width:0.14;stroke-linecap:butt;stroke-linejoin:round;stroke-miterlimit:10;stroke-opacity:1" />
    <g
       id="g299"
       style="fill:#000000;fill-opacity:1">
      <use
         height="100%"
         width="100%"
         id="use297"
         y="385.2955"
         x="227.11072"
         xlink:href="#glyph0-17" />
    </g>
    <path
       inkscape:connector-curvature="0"
       id="path301"
       transform="matrix(2.335693,5.88233e-8,-2.00168e-8,-2.112542,51.49,412.11)"
       d="m 93.074242,157.95018 -10e-7,-134.99176"
       style="fill:none;stroke:#000000;stroke-width:0.14;stroke-linecap:butt;stroke-linejoin:round;stroke-miterlimit:10;stroke-opacity:1" />
    <g
       id="g305"
       style="fill:#000000;fill-opacity:1">
      <use
         height="100%"
         width="100%"
         id="use303"
         y="385.2955"
         x="264.36502"
         xlink:href="#glyph0-18" />
    </g>
    <path
       inkscape:connector-curvature="0"
       id="path307"
       transform="matrix(2.335693,5.88233e-8,-2.00168e-8,-2.112542,51.49,412.11)"
       d="m 109.0107,157.95018 -1e-5,-134.991759"
       style="fill:none;stroke:#000000;stroke-width:0.14;stroke-linecap:butt;stroke-linejoin:round;stroke-miterlimit:10;stroke-opacity:1" />
    <g
       id="g313"
       style="fill:#000000;fill-opacity:1">
      <use
         height="100%"
         width="100%"
         id="use309"
         y="385.2955"
         x="297.01801"
         xlink:href="#glyph0-19" />
      <use
         height="100%"
         width="100%"
         id="use311"
         y="385.2955"
         x="306.11362"
         xlink:href="#glyph0-14" />
    </g>
    <path
       inkscape:connector-curvature="0"
       id="path315"
       transform="matrix(2.335693,5.88233e-8,-2.00168e-8,-2.112542,51.49,412.11)"
       d="m 124.9505,157.95018 -1e-5,-134.991759"
       style="fill:none;stroke:#000000;stroke-width:0.14;stroke-linecap:butt;stroke-linejoin:round;stroke-miterlimit:10;stroke-opacity:1" />
    <g
       id="g321"
       style="fill:#000000;fill-opacity:1">
      <use
         height="100%"
         width="100%"
         id="use317"
         y="385.2955"
         x="334.22559"
         xlink:href="#glyph0-19" />
      <use
         height="100%"
         width="100%"
         id="use319"
         y="385.2955"
         x="343.3212"
         xlink:href="#glyph0-15" />
    </g>
    <path
       inkscape:connector-curvature="0"
       id="path323"
       transform="matrix(2.335693,5.88233e-8,-2.00168e-8,-2.112542,51.49,412.11)"
       d="M 140.87022,157.95018 V 22.958421"
       style="fill:none;stroke:#000000;stroke-width:0.14;stroke-linecap:butt;stroke-linejoin:round;stroke-miterlimit:10;stroke-opacity:1" />
    <g
       id="g329"
       style="fill:#000000;fill-opacity:1">
      <use
         height="100%"
         width="100%"
         id="use325"
         y="385.2955"
         x="371.43317"
         xlink:href="#glyph0-19" />
      <use
         height="100%"
         width="100%"
         id="use327"
         y="385.2955"
         x="380.52878"
         xlink:href="#glyph0-16" />
    </g>
    <path
       inkscape:connector-curvature="0"
       id="path331"
       transform="matrix(2.335693,5.88233e-8,-2.00168e-8,-2.112542,51.49,412.11)"
       d="M 156.81002,157.95018 V 22.958422"
       style="fill:none;stroke:#000000;stroke-width:0.14;stroke-linecap:butt;stroke-linejoin:round;stroke-miterlimit:10;stroke-opacity:1" />
    <g
       id="g337"
       style="fill:#000000;fill-opacity:1">
      <use
         height="100%"
         width="100%"
         id="use333"
         y="385.2955"
         x="408.64075"
         xlink:href="#glyph0-19" />
      <use
         height="100%"
         width="100%"
         id="use335"
         y="385.2955"
         x="417.73636"
         xlink:href="#glyph0-17" />
    </g>
    <path
       inkscape:connector-curvature="0"
       id="path339"
       transform="matrix(2.335693,5.88233e-8,-2.00168e-8,-2.112542,51.49,412.11)"
       d="m 172.75986,157.95018 -1e-5,-134.991758"
       style="fill:none;stroke:#000000;stroke-width:0.14;stroke-linecap:butt;stroke-linejoin:round;stroke-miterlimit:10;stroke-opacity:1" />
    <g
       id="g345"
       style="fill:#000000;fill-opacity:1">
      <use
         height="100%"
         width="100%"
         id="use341"
         y="385.2955"
         x="445.89505"
         xlink:href="#glyph0-19" />
      <use
         height="100%"
         width="100%"
         id="use343"
         y="385.2955"
         x="454.99066"
         xlink:href="#glyph0-18" />
    </g>
    <path
       inkscape:connector-curvature="0"
       id="path347"
       transform="matrix(2.335693,5.88233e-8,-2.00168e-8,-2.112542,51.49,412.11)"
       d="M 188.68962,157.95018 V 22.958423"
       style="fill:none;stroke:#000000;stroke-width:0.14;stroke-linecap:butt;stroke-linejoin:round;stroke-miterlimit:10;stroke-opacity:1" />
    <g
       id="g353"
       style="fill:#000000;fill-opacity:1">
      <use
         height="100%"
         width="100%"
         id="use349"
         y="385.2955"
         x="483.12598"
         xlink:href="#glyph0-15" />
      <use
         height="100%"
         width="100%"
         id="use351"
         y="385.2955"
         x="492.22159"
         xlink:href="#glyph0-14" />
    </g>
    <path
       inkscape:connector-curvature="0"
       id="path355"
       transform="matrix(2.335693,5.88233e-8,-2.00168e-8,-2.112542,51.49,412.11)"
       d="M 204.62942,157.95018 V 22.958423"
       style="fill:none;stroke:#000000;stroke-width:0.14;stroke-linecap:butt;stroke-linejoin:round;stroke-miterlimit:10;stroke-opacity:1" />
    <g
       id="g361"
       style="fill:#000000;fill-opacity:1">
      <use
         height="100%"
         width="100%"
         id="use357"
         y="385.2955"
         x="520.35693"
         xlink:href="#glyph0-15" />
      <use
         height="100%"
         width="100%"
         id="use359"
         y="385.2955"
         x="529.45251"
         xlink:href="#glyph0-15" />
    </g>
    <g
       id="g367"
       style="fill:#000000;fill-opacity:1">
      <use
         height="100%"
         width="100%"
         id="use363"
         y="385.2955"
         x="557.61121"
         xlink:href="#glyph0-15" />
      <use
         height="100%"
         width="100%"
         id="use365"
         y="385.2955"
         x="566.70685"
         xlink:href="#glyph0-16" />
    </g>
    <g
       id="g375"
       style="fill:#000000;fill-opacity:1">
      <use
         height="100%"
         width="100%"
         id="use369"
         y="368.40573"
         x="88.994217"
         xlink:href="#glyph0-20" />
      <use
         height="100%"
         width="100%"
         id="use371"
         y="368.40573"
         x="94.460648"
         xlink:href="#glyph0-19" />
      <use
         height="100%"
         width="100%"
         id="use373"
         y="368.40573"
         x="103.58778"
         xlink:href="#glyph0-14" />
    </g>
    <path
       inkscape:connector-curvature="0"
       id="path377"
       transform="matrix(2.335693,5.88233e-8,-2.00168e-8,-2.112542,51.49,412.11)"
       d="m 29.299996,36.465915 191.309354,5e-6"
       style="fill:none;stroke:#000000;stroke-width:0.14;stroke-linecap:butt;stroke-linejoin:round;stroke-miterlimit:10;stroke-opacity:1" />
    <g
       id="g383"
       style="fill:#000000;fill-opacity:1">
      <use
         height="100%"
         width="100%"
         id="use379"
         y="339.90332"
         x="98.089401"
         xlink:href="#glyph0-20" />
      <use
         height="100%"
         width="100%"
         id="use381"
         y="339.90332"
         x="103.60278"
         xlink:href="#glyph0-18" />
    </g>
    <path
       inkscape:connector-curvature="0"
       id="path385"
       transform="matrix(2.335693,5.88233e-8,-2.00168e-8,-2.112542,51.49,412.11)"
       d="m 29.299996,49.984506 191.309354,5e-6"
       style="fill:none;stroke:#000000;stroke-width:0.14;stroke-linecap:butt;stroke-linejoin:round;stroke-miterlimit:10;stroke-opacity:1" />
    <g
       id="g391"
       style="fill:#000000;fill-opacity:1">
      <use
         height="100%"
         width="100%"
         id="use387"
         y="311.3692"
         x="98.089401"
         xlink:href="#glyph0-20" />
      <use
         height="100%"
         width="100%"
         id="use389"
         y="311.3692"
         x="103.60278"
         xlink:href="#glyph0-17" />
    </g>
    <path
       inkscape:connector-curvature="0"
       id="path393"
       transform="matrix(2.335693,5.88233e-8,-2.00168e-8,-2.112542,51.49,412.11)"
       d="m 29.299996,63.47721 191.309354,5e-6"
       style="fill:none;stroke:#000000;stroke-width:0.14;stroke-linecap:butt;stroke-linejoin:round;stroke-miterlimit:10;stroke-opacity:1" />
    <g
       id="g399"
       style="fill:#000000;fill-opacity:1">
      <use
         height="100%"
         width="100%"
         id="use395"
         y="282.86469"
         x="98.089401"
         xlink:href="#glyph0-20" />
      <use
         height="100%"
         width="100%"
         id="use397"
         y="282.86469"
         x="103.60278"
         xlink:href="#glyph0-16" />
    </g>
    <path
       inkscape:connector-curvature="0"
       id="path401"
       transform="matrix(2.335693,5.88233e-8,-2.00168e-8,-2.112542,51.49,412.11)"
       d="m 29.299996,76.956971 191.309354,5e-6"
       style="fill:none;stroke:#000000;stroke-width:0.14;stroke-linecap:butt;stroke-linejoin:round;stroke-miterlimit:10;stroke-opacity:1" />
    <g
       id="g407"
       style="fill:#000000;fill-opacity:1">
      <use
         height="100%"
         width="100%"
         id="use403"
         y="254.36226"
         x="98.089401"
         xlink:href="#glyph0-20" />
      <use
         height="100%"
         width="100%"
         id="use405"
         y="254.36226"
         x="103.60278"
         xlink:href="#glyph0-15" />
    </g>
    <path
       inkscape:connector-curvature="0"
       id="path409"
       transform="matrix(2.335693,5.88233e-8,-2.00168e-8,-2.112542,51.49,412.11)"
       d="m 29.299996,90.449675 191.309354,5e-6"
       style="fill:none;stroke:#000000;stroke-width:0.14;stroke-linecap:butt;stroke-linejoin:round;stroke-miterlimit:10;stroke-opacity:1" />
    <g
       id="g413"
       style="fill:#000000;fill-opacity:1">
      <use
         height="100%"
         width="100%"
         id="use411"
         y="225.88518"
         x="103.60397"
         xlink:href="#glyph0-14" />
    </g>
    <path
       inkscape:connector-curvature="0"
       id="path415"
       transform="matrix(2.335693,5.88233e-8,-2.00168e-8,-2.112542,51.49,412.11)"
       d="M 29.299996,103.97012 H 220.60935"
       style="fill:none;stroke:#000000;stroke-width:0.14;stroke-linecap:butt;stroke-linejoin:round;stroke-miterlimit:10;stroke-opacity:1" />
    <g
       id="g419"
       style="fill:#000000;fill-opacity:1">
      <use
         height="100%"
         width="100%"
         id="use417"
         y="197.32784"
         x="103.60397"
         xlink:href="#glyph0-15" />
    </g>
    <path
       inkscape:connector-curvature="0"
       id="path421"
       transform="matrix(2.335693,5.88233e-8,-2.00168e-8,-2.112542,51.49,412.11)"
       d="M 29.299996,117.44988 H 220.60935"
       style="fill:none;stroke:#000000;stroke-width:0.14;stroke-linecap:butt;stroke-linejoin:round;stroke-miterlimit:10;stroke-opacity:1" />
    <g
       id="g425"
       style="fill:#000000;fill-opacity:1">
      <use
         height="100%"
         width="100%"
         id="use423"
         y="168.82965"
         x="103.60397"
         xlink:href="#glyph0-16" />
    </g>
    <path
       inkscape:connector-curvature="0"
       id="path427"
       transform="matrix(2.335693,5.88233e-8,-2.00168e-8,-2.112542,51.49,412.11)"
       d="m 29.299997,130.94073 191.309353,1e-5"
       style="fill:none;stroke:#000000;stroke-width:0.14;stroke-linecap:butt;stroke-linejoin:round;stroke-miterlimit:10;stroke-opacity:1" />
    <g
       id="g431"
       style="fill:#000000;fill-opacity:1">
      <use
         height="100%"
         width="100%"
         id="use429"
         y="140.35257"
         x="103.60397"
         xlink:href="#glyph0-17" />
    </g>
    <path
       inkscape:connector-curvature="0"
       id="path433"
       transform="matrix(2.335693,5.88233e-8,-2.00168e-8,-2.112542,51.49,412.11)"
       d="m 29.299997,144.45932 191.309353,1e-5"
       style="fill:none;stroke:#000000;stroke-width:0.14;stroke-linecap:butt;stroke-linejoin:round;stroke-miterlimit:10;stroke-opacity:1" />
    <g
       id="g437"
       style="fill:#000000;fill-opacity:1">
      <use
         height="100%"
         width="100%"
         id="use435"
         y="111.79101"
         x="103.60397"
         xlink:href="#glyph0-18" />
    </g>
    <g
       id="g443"
       style="fill:#000000;fill-opacity:1">
      <use
         height="100%"
         width="100%"
         id="use439"
         y="83.27169"
         x="94.506447"
         xlink:href="#glyph0-19" />
      <use
         height="100%"
         width="100%"
         id="use441"
         y="83.27169"
         x="103.60205"
         xlink:href="#glyph0-14" />
    </g>
    <path
       inkscape:connector-curvature="0"
       id="path445"
       transform="matrix(2.335693,5.88233e-8,-2.00168e-8,-2.112542,51.49,412.11)"
       d="m 29.77998,89.9985 3.493677,-1.701149 3.98704,-1.076162 4.002092,0.373513 3.973661,-0.266266 3.98704,-0.676762 3.975333,0.371664 4.00042,0.253324 3.98704,-2.298401 3.975333,-0.105397 3.973661,0.650875 4.013799,0.502948 3.97366,-3.1989 3.988713,-2.046927 3.973661,1.089106 3.973661,-0.689705 4.015471,2.270665 3.973661,-0.796952 3.971987,-1.553223 3.99039,1.804698 4.00041,-3.252524 3.96865,-0.477061 3.99038,1.4996 3.98035,-1.168616 4.00042,0.238531 3.97868,-3.744378 3.98035,2.098701 3.97032,0.330985 3.99038,2.775462 4.00042,-2.483308 3.97868,1.555073 3.98035,1.817641 3.98035,-2.124588 4.01046,0.850575 3.98035,-0.0943 3.96864,-1.606846 3.99038,-2.163418 3.97032,3.320939 4.00042,-0.652723 3.98871,-0.449325 3.97032,0.223738 3.98035,1.926737 4.01045,-0.771065 3.98035,-0.251474 3.96865,-0.730385 h 3.99038 l 4.00042,1.632734 3.97032,-0.15902 3.47026,-1.647526"
       style="fill:none;stroke:#000000;stroke-width:1.0269;stroke-linecap:butt;stroke-linejoin:round;stroke-miterlimit:10;stroke-opacity:1" />
    <path
       inkscape:connector-curvature="0"
       id="path447"
       transform="matrix(2.335693,5.88233e-8,-2.00168e-8,-2.112542,51.49,412.11)"
       d="m 29.77998,90.370164 3.493677,-0.225587 3.98704,0.504798 4.002092,0.502949 3.973661,-1.658621 3.98704,-0.425287 3.975333,-0.943029 4.00042,2.324288 3.98704,-0.676761 3.975333,0.305097 3.973661,1.924888 4.013799,-2.204098 3.97366,0.543629 3.988713,1.076162 3.973661,-1.42009 3.973661,0.3994 4.015471,1.830585 3.973661,-0.730385 3.971987,6.296103 3.99039,-4.051325 4.00042,2.059871 3.96864,0.623138 3.99038,-3.28026 3.98035,0.05362 4.00042,4.328685 3.97868,-1.77881 3.98035,1.248126 3.97032,-0.930085 3.99038,-1.514393 4.00042,1.767717 h 7.95903 l 3.98035,-0.12019 4.01046,-2.403798 3.98035,-1.076162 3.96864,0.704498 3.99038,1.447826 3.97032,-0.650874 4.00042,-2.272514 3.98871,3.346827 3.97032,-0.743328 3.98035,1.022539 4.01045,-0.902349 3.98035,-0.597251 3.96865,0.743328 3.99038,-2.298401 4.00042,0.824688 3.97032,3.28026 3.47026,-0.530684"
       style="fill:none;stroke:#a8a8a8;stroke-width:1.0269;stroke-linecap:butt;stroke-linejoin:round;stroke-miterlimit:10;stroke-opacity:1" />
    <path
       inkscape:connector-curvature="0"
       id="path449"
       transform="matrix(2.335693,5.88233e-8,-2.00168e-8,-2.112542,51.49,412.11)"
       d="m 29.299996,22.984305 191.279254,6e-6 V 157.95573 l -191.279253,-10e-6 z m 0,0"
       style="fill:none;stroke:#000000;stroke-width:1.0269;stroke-linecap:round;stroke-linejoin:miter;stroke-miterlimit:10;stroke-opacity:1" />
    <path
       inkscape:connector-curvature="0"
       id="path451"
       transform="matrix(2.335693,5.88233e-8,-2.00168e-8,-2.112542,51.49,412.11)"
       d="m 183.21078,133.89001 h 37.3668 v 24.06387 h -37.3668 z m 0,0"
       style="fill:#ffffff;fill-opacity:1;fill-rule:evenodd;stroke:#000000;stroke-width:1.0269;stroke-linecap:round;stroke-linejoin:miter;stroke-miterlimit:10;stroke-opacity:1" />
    <path
       inkscape:connector-curvature="0"
       id="path453"
       transform="matrix(2.335693,5.88233e-8,-2.00168e-8,-2.112542,51.49,412.11)"
       d="M 187.32995,149.96033 H 199.7192"
       style="fill:none;stroke:#000000;stroke-width:1.0269;stroke-linecap:square;stroke-linejoin:round;stroke-miterlimit:10;stroke-opacity:1" />
    <g
       id="g461"
       style="fill:#000000;fill-opacity:1">
      <use
         height="100%"
         width="100%"
         id="use455"
         y="100.53117"
         x="527.5976"
         xlink:href="#glyph0-19" />
      <use
         height="100%"
         width="100%"
         id="use457"
         y="100.53117"
         x="536.69318"
         xlink:href="#glyph0-21" />
      <use
         height="100%"
         width="100%"
         id="use459"
         y="100.53117"
         x="548.51379"
         xlink:href="#glyph0-22" />
    </g>
    <path
       inkscape:connector-curvature="0"
       id="path463"
       transform="matrix(2.335693,5.88233e-8,-2.00168e-8,-2.112542,51.49,412.11)"
       d="M 187.32995,141.95938 H 199.7192"
       style="fill:none;stroke:#a8a8a8;stroke-width:1.0269;stroke-linecap:square;stroke-linejoin:round;stroke-miterlimit:10;stroke-opacity:1" />
    <g
       id="g471"
       style="fill:#000000;fill-opacity:1">
      <use
         height="100%"
         width="100%"
         id="use465"
         y="117.38925"
         x="527.5976"
         xlink:href="#glyph0-23" />
      <use
         height="100%"
         width="100%"
         id="use467"
         y="117.38925"
         x="536.69318"
         xlink:href="#glyph0-21" />
      <use
         height="100%"
         width="100%"
         id="use469"
         y="117.38925"
         x="548.51379"
         xlink:href="#glyph0-22" />
    </g>
  </g>
</svg>
