<?xml version="1.0" encoding="UTF-8" standalone="no"?>
<svg
   xmlns:dc="http://purl.org/dc/elements/1.1/"
   xmlns:cc="http://creativecommons.org/ns#"
   xmlns:rdf="http://www.w3.org/1999/02/22-rdf-syntax-ns#"
   xmlns:svg="http://www.w3.org/2000/svg"
   xmlns="http://www.w3.org/2000/svg"
   xmlns:sodipodi="http://sodipodi.sourceforge.net/DTD/sodipodi-0.dtd"
   xmlns:inkscape="http://www.inkscape.org/namespaces/inkscape"
   sodipodi:docname="D8018_SBASA42.pdf"
   viewBox="0 0 684.93451 455.72424"
   height="455.72424"
   width="684.93451"
   xml:space="preserve"
   id="svg2"
   version="1.1"><metadata
     id="metadata8"><rdf:RDF><cc:Work
         rdf:about=""><dc:format>image/svg+xml</dc:format><dc:type
           rdf:resource="http://purl.org/dc/dcmitype/StillImage" /></cc:Work></rdf:RDF></metadata><defs
     id="defs6"><clipPath
       id="clipPath18"
       clipPathUnits="userSpaceOnUse"><path
         inkscape:connector-curvature="0"
         id="path16"
         clip-rule="evenodd"
         d="M 51.49,204.51 H 588.96 V 557.03 H 51.49 Z" /></clipPath><clipPath
       id="clipPath28"
       clipPathUnits="userSpaceOnUse"><path
         inkscape:connector-curvature="0"
         id="path26"
         d="M 0,0 H 232.07 V 169.06 H 0 Z" /></clipPath></defs><sodipodi:namedview
     id="namedview4"
     inkscape:window-height="480"
     inkscape:window-width="640"
     inkscape:pageshadow="2"
     inkscape:pageopacity="0"
     guidetolerance="10"
     gridtolerance="10"
     objecttolerance="10"
     borderopacity="1"
     bordercolor="#666666"
     pagecolor="#ffffff" /><g
     transform="matrix(1.3333333,0,0,-1.3333333,-82.512428,736.84983)"
     inkscape:label="D8018_SBASA42"
     inkscape:groupmode="layer"
     id="g10"><g
       id="g12"><g
         clip-path="url(#clipPath18)"
         id="g14"><g
           transform="matrix(7.4649,0,-4.7e-8,4.8962,51.49,204.51)"
           id="g20"><g
             transform="scale(0.31025,0.42589)"
             id="g22"><g
               clip-path="url(#clipPath28)"
               id="g24"><text
                 id="text32"
                 style="font-variant:normal;font-weight:normal;font-size:7.0058px;font-family:Arial;-inkscape-font-specification:ArialMT;writing-mode:lr-tb;fill:#000000;fill-opacity:1;fill-rule:nonzero;stroke:none"
                 transform="matrix(1,0,0,-1,100.34,4.512)"><tspan
                   id="tspan30"
                   sodipodi:role="line"
                   y="0"
                   x="0 5.0301642 9.7030334 14.354884 16.302496 20.975365 24.87059 26.818203 28.786833 30.342119 34.237343 38.111553 40.059166 42.427124 46.32235 50.96019">DSA Setting (dB)</tspan></text><text
                 id="text36"
                 style="font-variant:normal;font-weight:normal;font-size:7.0058px;font-family:Arial;-inkscape-font-specification:ArialMT;writing-mode:lr-tb;fill:#000000;fill-opacity:1;fill-rule:nonzero;stroke:none"
                 transform="matrix(-4.4e-8,1,1,4.4e-8,9.5885,13.522)"><tspan
                   id="tspan34"
                   sodipodi:role="line"
                   y="0"
                   x="0 5.0581875 8.9534121 12.421284 16.330521 17.857784 19.385048 23.294285 25.627216 29.522442 31.470053 35.36528 39.260502 41.229134 45.873978 49.769203 53.664429 57.167328 61.062553 63.010166 68.068352 69.595619 71.543228 73.504852 77.400078 79.733009 83.628235 87.52346 89.471069 91.040375 94.935593 96.455856 98.403465 103.46165 107.35688 111.25211 112.80739 114.32765 118.22288 122.1181 126.01332 128.34625 129.90155 131.86317 135.36607 137.31367 139.66063 143.55585 147.45107 151.3463">Uncalibrated Phase Differential Nonlinearity (deg)</tspan></text><path
                 inkscape:connector-curvature="0"
                 id="path38"
                 style="fill:none;stroke:#000000;stroke-width:1.0242;stroke-linecap:round;stroke-linejoin:miter;stroke-miterlimit:10;stroke-dasharray:none;stroke-opacity:1"
                 d="m 31.289,22.798 h 191.44 v 135.14 H 31.289 Z" /><text
                 id="text42"
                 style="font-variant:normal;font-weight:normal;font-size:7.0058px;font-family:Arial;-inkscape-font-specification:ArialMT;writing-mode:lr-tb;fill:#000000;fill-opacity:1;fill-rule:nonzero;stroke:none"
                 transform="matrix(1,0,0,-1,29.359,12.512)"><tspan
                   id="tspan40"
                   y="0"
                   x="0">0</tspan></text><path
                 inkscape:connector-curvature="0"
                 id="path44"
                 style="fill:none;stroke:#000000;stroke-width:0.14;stroke-linecap:butt;stroke-linejoin:round;stroke-miterlimit:10;stroke-dasharray:none;stroke-opacity:1"
                 d="M 50.421,157.94 V 22.783" /><text
                 id="text48"
                 style="font-variant:normal;font-weight:normal;font-size:7.0058px;font-family:Arial;-inkscape-font-specification:ArialMT;writing-mode:lr-tb;fill:#000000;fill-opacity:1;fill-rule:nonzero;stroke:none"
                 transform="matrix(1,0,0,-1,48.492,12.512)"><tspan
                   id="tspan46"
                   y="0"
                   x="0">4</tspan></text><path
                 inkscape:connector-curvature="0"
                 id="path50"
                 style="fill:none;stroke:#000000;stroke-width:0.14;stroke-linecap:butt;stroke-linejoin:round;stroke-miterlimit:10;stroke-dasharray:none;stroke-opacity:1"
                 d="M 69.568,157.94 V 22.783" /><text
                 id="text54"
                 style="font-variant:normal;font-weight:normal;font-size:7.0058px;font-family:Arial;-inkscape-font-specification:ArialMT;writing-mode:lr-tb;fill:#000000;fill-opacity:1;fill-rule:nonzero;stroke:none"
                 transform="matrix(1,0,0,-1,67.639,12.512)"><tspan
                   id="tspan52"
                   y="0"
                   x="0">8</tspan></text><path
                 inkscape:connector-curvature="0"
                 id="path56"
                 style="fill:none;stroke:#000000;stroke-width:0.14;stroke-linecap:butt;stroke-linejoin:round;stroke-miterlimit:10;stroke-dasharray:none;stroke-opacity:1"
                 d="M 88.716,157.94 V 22.783" /><text
                 id="text60"
                 style="font-variant:normal;font-weight:normal;font-size:7.0058px;font-family:Arial;-inkscape-font-specification:ArialMT;writing-mode:lr-tb;fill:#000000;fill-opacity:1;fill-rule:nonzero;stroke:none"
                 transform="matrix(1,0,0,-1,84.812,12.512)"><tspan
                   id="tspan58"
                   sodipodi:role="line"
                   y="0"
                   x="0 3.9036548">12</tspan></text><path
                 inkscape:connector-curvature="0"
                 id="path62"
                 style="fill:none;stroke:#000000;stroke-width:0.14;stroke-linecap:butt;stroke-linejoin:round;stroke-miterlimit:10;stroke-dasharray:none;stroke-opacity:1"
                 d="M 107.85,157.94 V 22.783" /><text
                 id="text66"
                 style="font-variant:normal;font-weight:normal;font-size:7.0058px;font-family:Arial;-inkscape-font-specification:ArialMT;writing-mode:lr-tb;fill:#000000;fill-opacity:1;fill-rule:nonzero;stroke:none"
                 transform="matrix(1,0,0,-1,103.96,12.512)"><tspan
                   id="tspan64"
                   sodipodi:role="line"
                   y="0"
                   x="0 3.9036548">16</tspan></text><path
                 inkscape:connector-curvature="0"
                 id="path68"
                 style="fill:none;stroke:#000000;stroke-width:0.14;stroke-linecap:butt;stroke-linejoin:round;stroke-miterlimit:10;stroke-dasharray:none;stroke-opacity:1"
                 d="M 127.02,157.94 V 22.783" /><text
                 id="text72"
                 style="font-variant:normal;font-weight:normal;font-size:7.0058px;font-family:Arial;-inkscape-font-specification:ArialMT;writing-mode:lr-tb;fill:#000000;fill-opacity:1;fill-rule:nonzero;stroke:none"
                 transform="matrix(1,0,0,-1,123.12,12.512)"><tspan
                   id="tspan70"
                   sodipodi:role="line"
                   y="0"
                   x="0 3.9036548">20</tspan></text><path
                 inkscape:connector-curvature="0"
                 id="path74"
                 style="fill:none;stroke:#000000;stroke-width:0.14;stroke-linecap:butt;stroke-linejoin:round;stroke-miterlimit:10;stroke-dasharray:none;stroke-opacity:1"
                 d="M 146.16,157.94 V 22.783" /><text
                 id="text78"
                 style="font-variant:normal;font-weight:normal;font-size:7.0058px;font-family:Arial;-inkscape-font-specification:ArialMT;writing-mode:lr-tb;fill:#000000;fill-opacity:1;fill-rule:nonzero;stroke:none"
                 transform="matrix(1,0,0,-1,142.27,12.512)"><tspan
                   id="tspan76"
                   sodipodi:role="line"
                   y="0"
                   x="0 3.9036548">24</tspan></text><path
                 inkscape:connector-curvature="0"
                 id="path80"
                 style="fill:none;stroke:#000000;stroke-width:0.14;stroke-linecap:butt;stroke-linejoin:round;stroke-miterlimit:10;stroke-dasharray:none;stroke-opacity:1"
                 d="M 165.3,157.94 V 22.783" /><text
                 id="text84"
                 style="font-variant:normal;font-weight:normal;font-size:7.0058px;font-family:Arial;-inkscape-font-specification:ArialMT;writing-mode:lr-tb;fill:#000000;fill-opacity:1;fill-rule:nonzero;stroke:none"
                 transform="matrix(1,0,0,-1,161.4,12.512)"><tspan
                   id="tspan82"
                   sodipodi:role="line"
                   y="0"
                   x="0 3.9036548">28</tspan></text><path
                 inkscape:connector-curvature="0"
                 id="path86"
                 style="fill:none;stroke:#000000;stroke-width:0.14;stroke-linecap:butt;stroke-linejoin:round;stroke-miterlimit:10;stroke-dasharray:none;stroke-opacity:1"
                 d="M 184.44,157.94 V 22.783" /><text
                 id="text90"
                 style="font-variant:normal;font-weight:normal;font-size:7.0058px;font-family:Arial;-inkscape-font-specification:ArialMT;writing-mode:lr-tb;fill:#000000;fill-opacity:1;fill-rule:nonzero;stroke:none"
                 transform="matrix(1,0,0,-1,180.55,12.512)"><tspan
                   id="tspan88"
                   sodipodi:role="line"
                   y="0"
                   x="0 3.9036548">32</tspan></text><path
                 inkscape:connector-curvature="0"
                 id="path92"
                 style="fill:none;stroke:#000000;stroke-width:0.14;stroke-linecap:butt;stroke-linejoin:round;stroke-miterlimit:10;stroke-dasharray:none;stroke-opacity:1"
                 d="M 203.58,157.94 V 22.783" /><text
                 id="text96"
                 style="font-variant:normal;font-weight:normal;font-size:7.0058px;font-family:Arial;-inkscape-font-specification:ArialMT;writing-mode:lr-tb;fill:#000000;fill-opacity:1;fill-rule:nonzero;stroke:none"
                 transform="matrix(1,0,0,-1,199.68,12.512)"><tspan
                   id="tspan94"
                   sodipodi:role="line"
                   y="0"
                   x="0 3.9036548">36</tspan></text><text
                 id="text100"
                 style="font-variant:normal;font-weight:normal;font-size:7.0058px;font-family:Arial;-inkscape-font-specification:ArialMT;writing-mode:lr-tb;fill:#000000;fill-opacity:1;fill-rule:nonzero;stroke:none"
                 transform="matrix(1,0,0,-1,218.83,12.512)"><tspan
                   id="tspan98"
                   sodipodi:role="line"
                   y="0"
                   x="0 3.9036548">40</tspan></text><text
                 id="text104"
                 style="font-variant:normal;font-weight:normal;font-size:7.0058px;font-family:Arial;-inkscape-font-specification:ArialMT;writing-mode:lr-tb;fill:#000000;fill-opacity:1;fill-rule:nonzero;stroke:none"
                 transform="matrix(1,0,0,-1,16.104,20.513)"><tspan
                   id="tspan102"
                   sodipodi:role="line"
                   y="0"
                   x="0 2.3329315 6.2281561 8.1757689">-0.5</tspan></text><path
                 inkscape:connector-curvature="0"
                 id="path106"
                 style="fill:none;stroke:#000000;stroke-width:0.14;stroke-linecap:butt;stroke-linejoin:round;stroke-miterlimit:10;stroke-dasharray:none;stroke-opacity:1"
                 d="M 31.289,36.305 H 222.76" /><text
                 id="text110"
                 style="font-variant:normal;font-weight:normal;font-size:7.0058px;font-family:Arial;-inkscape-font-specification:ArialMT;writing-mode:lr-tb;fill:#000000;fill-opacity:1;fill-rule:nonzero;stroke:none"
                 transform="matrix(1,0,0,-1,16.104,34.005)"><tspan
                   id="tspan108"
                   sodipodi:role="line"
                   y="0"
                   x="0 2.3329315 6.2281561 8.1757689">-0.4</tspan></text><path
                 inkscape:connector-curvature="0"
                 id="path112"
                 style="fill:none;stroke:#000000;stroke-width:0.14;stroke-linecap:butt;stroke-linejoin:round;stroke-miterlimit:10;stroke-dasharray:none;stroke-opacity:1"
                 d="M 31.289,49.842 H 222.76" /><text
                 id="text116"
                 style="font-variant:normal;font-weight:normal;font-size:7.0058px;font-family:Arial;-inkscape-font-specification:ArialMT;writing-mode:lr-tb;fill:#000000;fill-opacity:1;fill-rule:nonzero;stroke:none"
                 transform="matrix(1,0,0,-1,16.104,47.541)"><tspan
                   id="tspan114"
                   sodipodi:role="line"
                   y="0"
                   x="0 2.3329315 6.2281561 8.1757689">-0.3</tspan></text><path
                 inkscape:connector-curvature="0"
                 id="path118"
                 style="fill:none;stroke:#000000;stroke-width:0.14;stroke-linecap:butt;stroke-linejoin:round;stroke-miterlimit:10;stroke-dasharray:none;stroke-opacity:1"
                 d="M 31.289,63.349 H 222.76" /><text
                 id="text122"
                 style="font-variant:normal;font-weight:normal;font-size:7.0058px;font-family:Arial;-inkscape-font-specification:ArialMT;writing-mode:lr-tb;fill:#000000;fill-opacity:1;fill-rule:nonzero;stroke:none"
                 transform="matrix(1,0,0,-1,16.104,61.048)"><tspan
                   id="tspan120"
                   sodipodi:role="line"
                   y="0"
                   x="0 2.3329315 6.2281561 8.1757689">-0.2</tspan></text><path
                 inkscape:connector-curvature="0"
                 id="path124"
                 style="fill:none;stroke:#000000;stroke-width:0.14;stroke-linecap:butt;stroke-linejoin:round;stroke-miterlimit:10;stroke-dasharray:none;stroke-opacity:1"
                 d="M 31.289,76.856 H 222.76" /><text
                 id="text128"
                 style="font-variant:normal;font-weight:normal;font-size:7.0058px;font-family:Arial;-inkscape-font-specification:ArialMT;writing-mode:lr-tb;fill:#000000;fill-opacity:1;fill-rule:nonzero;stroke:none"
                 transform="matrix(1,0,0,-1,16.104,74.555)"><tspan
                   id="tspan126"
                   sodipodi:role="line"
                   y="0"
                   x="0 2.3329315 6.2281561 8.1757689">-0.1</tspan></text><path
                 inkscape:connector-curvature="0"
                 id="path130"
                 style="fill:none;stroke:#000000;stroke-width:0.14;stroke-linecap:butt;stroke-linejoin:round;stroke-miterlimit:10;stroke-dasharray:none;stroke-opacity:1"
                 d="M 31.289,90.363 H 222.76" /><text
                 id="text134"
                 style="font-variant:normal;font-weight:normal;font-size:7.0058px;font-family:Arial;-inkscape-font-specification:ArialMT;writing-mode:lr-tb;fill:#000000;fill-opacity:1;fill-rule:nonzero;stroke:none"
                 transform="matrix(1,0,0,-1,24.283,88.062)"><tspan
                   id="tspan132"
                   y="0"
                   x="0">0</tspan></text><path
                 inkscape:connector-curvature="0"
                 id="path136"
                 style="fill:none;stroke:#000000;stroke-width:0.14;stroke-linecap:butt;stroke-linejoin:round;stroke-miterlimit:10;stroke-dasharray:none;stroke-opacity:1"
                 d="M 31.289,103.88 H 222.76" /><text
                 id="text140"
                 style="font-variant:normal;font-weight:normal;font-size:7.0058px;font-family:Arial;-inkscape-font-specification:ArialMT;writing-mode:lr-tb;fill:#000000;fill-opacity:1;fill-rule:nonzero;stroke:none"
                 transform="matrix(1,0,0,-1,18.464,101.6)"><tspan
                   id="tspan138"
                   sodipodi:role="line"
                   y="0"
                   x="0 3.9036548 5.8596973">0.1</tspan></text><path
                 inkscape:connector-curvature="0"
                 id="path142"
                 style="fill:none;stroke:#000000;stroke-width:0.14;stroke-linecap:butt;stroke-linejoin:round;stroke-miterlimit:10;stroke-dasharray:none;stroke-opacity:1"
                 d="M 31.289,117.39 H 222.76" /><text
                 id="text146"
                 style="font-variant:normal;font-weight:normal;font-size:7.0058px;font-family:Arial;-inkscape-font-specification:ArialMT;writing-mode:lr-tb;fill:#000000;fill-opacity:1;fill-rule:nonzero;stroke:none"
                 transform="matrix(1,0,0,-1,18.464,115.09)"><tspan
                   id="tspan144"
                   sodipodi:role="line"
                   y="0"
                   x="0 3.9036548 5.8596973">0.2</tspan></text><path
                 inkscape:connector-curvature="0"
                 id="path148"
                 style="fill:none;stroke:#000000;stroke-width:0.14;stroke-linecap:butt;stroke-linejoin:round;stroke-miterlimit:10;stroke-dasharray:none;stroke-opacity:1"
                 d="M 31.289,130.9 H 222.76" /><text
                 id="text152"
                 style="font-variant:normal;font-weight:normal;font-size:7.0058px;font-family:Arial;-inkscape-font-specification:ArialMT;writing-mode:lr-tb;fill:#000000;fill-opacity:1;fill-rule:nonzero;stroke:none"
                 transform="matrix(1,0,0,-1,18.464,128.6)"><tspan
                   id="tspan150"
                   sodipodi:role="line"
                   y="0"
                   x="0 3.9036548 5.8596973">0.3</tspan></text><path
                 inkscape:connector-curvature="0"
                 id="path154"
                 style="fill:none;stroke:#000000;stroke-width:0.14;stroke-linecap:butt;stroke-linejoin:round;stroke-miterlimit:10;stroke-dasharray:none;stroke-opacity:1"
                 d="M 31.289,144.44 H 222.76" /><text
                 id="text158"
                 style="font-variant:normal;font-weight:normal;font-size:7.0058px;font-family:Arial;-inkscape-font-specification:ArialMT;writing-mode:lr-tb;fill:#000000;fill-opacity:1;fill-rule:nonzero;stroke:none"
                 transform="matrix(1,0,0,-1,18.464,142.13)"><tspan
                   id="tspan156"
                   sodipodi:role="line"
                   y="0"
                   x="0 3.9036548 5.8596973">0.4</tspan></text><text
                 id="text162"
                 style="font-variant:normal;font-weight:normal;font-size:7.0058px;font-family:Arial;-inkscape-font-specification:ArialMT;writing-mode:lr-tb;fill:#000000;fill-opacity:1;fill-rule:nonzero;stroke:none"
                 transform="matrix(1,0,0,-1,18.464,155.64)"><tspan
                   id="tspan160"
                   sodipodi:role="line"
                   y="0"
                   x="0 3.9036548 5.8596973">0.5</tspan></text><path
                 inkscape:connector-curvature="0"
                 id="path164"
                 style="fill:none;stroke:#000000;stroke-width:1.0242;stroke-linecap:butt;stroke-linejoin:round;stroke-miterlimit:10;stroke-dasharray:none;stroke-opacity:1"
                 d="m 31.764,88.315 4.304,-17.99 4.809,-0.757 4.765,8 4.779,-3.265 4.779,5.239 4.81,5.344 4.779,-0.46 4.779,-2.984 4.78,-0.935 4.809,10.613 4.779,-8.446 4.78,4.364 4.794,-1.128 4.779,1.128 4.781,5.388 4.78,-1.722 4.81,-3.948 4.78,4.423 4.78,-13.566 4.8,11.815 4.78,0.104 4.78,-1.648 4.77,-5.67 4.81,16.223 4.78,-18.004 4.78,14.487 4.78,0.029 4.8,-10.612 4.78,-5.611 4.78,37.304 4.81,-12.65 4.77,0.91 4.78,-2.99 4.78,-0.7 4.8,-0.767 4.78,-7.036 4.78,7.125 4.78,-8.713 4.81,10.181" /><path
                 inkscape:connector-curvature="0"
                 id="path166"
                 style="fill:none;stroke:#ff0000;stroke-width:1.0242;stroke-linecap:butt;stroke-linejoin:round;stroke-miterlimit:10;stroke-dasharray:none;stroke-opacity:1"
                 d="m 31.764,88.508 4.304,-16.164 4.809,3.369 4.765,0.594 4.779,6.367 4.779,0.134 4.81,1.558 4.779,-1.959 4.779,0.297 4.78,6.828 4.809,-0.253 4.779,-5.016 4.78,1.974 4.794,0.653 4.779,4.512 4.781,2.197 4.78,-5.255 4.81,0.475 4.78,4.512 4.78,-9.751 4.8,5.536 4.78,0.475 4.78,-0.772 4.77,-6.174 4.81,12.482 4.78,-8.994 4.78,4.512 4.78,1.38 4.8,-7.347 4.78,2.835 4.78,18.957 4.81,-4.59 4.77,-0.74 4.78,-0.74 4.78,-1.814 4.8,-2.865 4.78,2.613 4.78,-1.425 4.78,-7.377 4.81,10.498" /><path
                 inkscape:connector-curvature="0"
                 id="path168"
                 style="fill:none;stroke:#aaaaaa;stroke-width:1.0242;stroke-linecap:butt;stroke-linejoin:round;stroke-miterlimit:10;stroke-dasharray:none;stroke-opacity:1"
                 d="m 31.764,89.027 4.304,-11.666 4.809,1.172 4.765,2.123 4.779,0.786 4.779,4.943 4.81,0.282 4.779,1.707 4.779,0.846 4.78,-0.594 4.809,5.418 4.779,-1.559 4.78,-3.146 4.794,2.998 4.779,1.855 4.781,-0.311 4.78,-0.238 4.81,-5.388 4.78,8.09 4.78,-12.201 4.8,3.488 4.78,2.864 4.78,0.49 4.77,-4.972 4.81,5.7 4.78,-1.321 4.78,0.014 4.78,4.008 4.8,-9.841 4.78,5.388 4.78,11.118 4.81,-3.147 4.77,5.167 4.78,-4.381 4.78,-5.803 4.8,2.657 4.78,-2.583 4.78,-2.998 4.78,6.382 4.81,-6.1" /><path
                 inkscape:connector-curvature="0"
                 id="path170"
                 style="fill:none;stroke:#000000;stroke-width:1.0242;stroke-linecap:round;stroke-linejoin:miter;stroke-miterlimit:10;stroke-dasharray:none;stroke-opacity:1"
                 d="m 31.289,22.798 h 191.44 v 135.14 H 31.289 Z" /><path
                 inkscape:connector-curvature="0"
                 id="path172"
                 style="fill:#ffffff;fill-opacity:1;fill-rule:evenodd;stroke:none"
                 d="m 179.41,125.82 h 43.326 v 32.12 H 179.41 Z" /><path
                 inkscape:connector-curvature="0"
                 id="path174"
                 style="fill:none;stroke:#000000;stroke-width:1.0242;stroke-linecap:round;stroke-linejoin:miter;stroke-miterlimit:10;stroke-dasharray:none;stroke-opacity:1"
                 d="m 179.41,125.82 h 43.326 v 32.12 H 179.41 Z" /><path
                 inkscape:connector-curvature="0"
                 id="path176"
                 style="fill:none;stroke:#000000;stroke-width:1.0242;stroke-linecap:square;stroke-linejoin:round;stroke-miterlimit:10;stroke-dasharray:none;stroke-opacity:1"
                 d="m 183.53,149.94 h 12.41" /><text
                 id="text180"
                 style="font-variant:normal;font-weight:normal;font-size:7.0058px;font-family:Arial;-inkscape-font-specification:ArialMT;writing-mode:lr-tb;fill:#000000;fill-opacity:1;fill-rule:nonzero;stroke:none"
                 transform="matrix(1,0,0,-1,200.05,147.43)"><tspan
                   id="tspan178"
                   sodipodi:role="line"
                   y="0"
                   x="0 2.3329315 6.2281561">-40</tspan></text><text
                 id="text184"
                 style="font-variant:normal;font-weight:normal;font-size:7.0058px;font-family:Symbol;-inkscape-font-specification:SymbolMT;writing-mode:lr-tb;fill:#000000;fill-opacity:1;fill-rule:nonzero;stroke:none"
                 transform="matrix(1,0,0,-1,210.19,147.43)"><tspan
                   id="tspan182"
                   y="0"
                   x="0"></tspan></text><text
                 id="text188"
                 style="font-variant:normal;font-weight:normal;font-size:7.0058px;font-family:Arial;-inkscape-font-specification:ArialMT;writing-mode:lr-tb;fill:#000000;fill-opacity:1;fill-rule:nonzero;stroke:none"
                 transform="matrix(1,0,0,-1,212.96,147.43)"><tspan
                   id="tspan186"
                   y="0"
                   x="0">C</tspan></text><path
                 inkscape:connector-curvature="0"
                 id="path190"
                 style="fill:none;stroke:#ff0000;stroke-width:1.0242;stroke-linecap:square;stroke-linejoin:round;stroke-miterlimit:10;stroke-dasharray:none;stroke-opacity:1"
                 d="m 183.53,141.94 h 12.41" /><text
                 id="text194"
                 style="font-variant:normal;font-weight:normal;font-size:7.0058px;font-family:Arial;-inkscape-font-specification:ArialMT;writing-mode:lr-tb;fill:#000000;fill-opacity:1;fill-rule:nonzero;stroke:none"
                 transform="matrix(1,0,0,-1,200.05,139.43)"><tspan
                   id="tspan192"
                   sodipodi:role="line"
                   y="0"
                   x="0 3.9036548">25</tspan></text><text
                 id="text198"
                 style="font-variant:normal;font-weight:normal;font-size:7.0058px;font-family:Symbol;-inkscape-font-specification:SymbolMT;writing-mode:lr-tb;fill:#000000;fill-opacity:1;fill-rule:nonzero;stroke:none"
                 transform="matrix(1,0,0,-1,207.84,139.43)"><tspan
                   id="tspan196"
                   y="0"
                   x="0"></tspan></text><text
                 id="text202"
                 style="font-variant:normal;font-weight:normal;font-size:7.0058px;font-family:Arial;-inkscape-font-specification:ArialMT;writing-mode:lr-tb;fill:#000000;fill-opacity:1;fill-rule:nonzero;stroke:none"
                 transform="matrix(1,0,0,-1,210.63,139.43)"><tspan
                   id="tspan200"
                   y="0"
                   x="0">C</tspan></text><path
                 inkscape:connector-curvature="0"
                 id="path204"
                 style="fill:none;stroke:#aaaaaa;stroke-width:1.0242;stroke-linecap:square;stroke-linejoin:round;stroke-miterlimit:10;stroke-dasharray:none;stroke-opacity:1"
                 d="m 183.53,133.94 h 12.41" /><text
                 id="text208"
                 style="font-variant:normal;font-weight:normal;font-size:7.0058px;font-family:Arial;-inkscape-font-specification:ArialMT;writing-mode:lr-tb;fill:#000000;fill-opacity:1;fill-rule:nonzero;stroke:none"
                 transform="matrix(1,0,0,-1,200.05,131.43)"><tspan
                   id="tspan206"
                   sodipodi:role="line"
                   y="0"
                   x="0 3.9036548 7.8073096">110</tspan></text><text
                 id="text212"
                 style="font-variant:normal;font-weight:normal;font-size:7.0058px;font-family:Symbol;-inkscape-font-specification:SymbolMT;writing-mode:lr-tb;fill:#000000;fill-opacity:1;fill-rule:nonzero;stroke:none"
                 transform="matrix(1,0,0,-1,211.72,131.43)"><tspan
                   id="tspan210"
                   y="0"
                   x="0"></tspan></text><text
                 id="text216"
                 style="font-variant:normal;font-weight:normal;font-size:7.0058px;font-family:Arial;-inkscape-font-specification:ArialMT;writing-mode:lr-tb;fill:#000000;fill-opacity:1;fill-rule:nonzero;stroke:none"
                 transform="matrix(1,0,0,-1,214.51,131.43)"><tspan
                   id="tspan214"
                   y="0"
                   x="0">C</tspan></text></g></g></g></g></g></g></svg>
